<?xml version="1.0" encoding="utf-8"?>
<!-- Generator: Adobe Illustrator 16.0.0, SVG Export Plug-In . SVG Version: 6.00 Build 0)  -->
<!DOCTYPE svg PUBLIC "-//W3C//DTD SVG 1.1//EN" "http://www.w3.org/Graphics/SVG/1.1/DTD/svg11.dtd">
<svg version="1.1" id="Layer_1" xmlns="http://www.w3.org/2000/svg" xmlns:xlink="http://www.w3.org/1999/xlink" x="0px" y="0px"
	 width="256px" height="256px" viewBox="0 0 256 256" enable-background="new 0 0 256 256" xml:space="preserve">
<path fill-rule="evenodd" clip-rule="evenodd" fill="#F8FCFE" d="M243.879,110.396c-10.657-14.055-25.438-21.094-41.61-19.883
	c-3.728,0.297-7.399,1.016-10.946,2.141c-1.867-14.914-14.148-27.594-32.72-33.446c-17.734-5.61-41.054-4.274-53.179,11.289
	c-2.789,3.547-6.125,8.157-8.617,13.477c-1.414-0.938-2.906-1.82-4.516-2.57c-8.868-4.156-19.719-4.711-28.298-1.406
	c-16.227,6.219-27.595,22.118-27.806,38.446c-8.516,1.484-20.711,4.68-28.711,15.186c-10.5,13.789-9.875,34.54,1.469,48.235
	c11.719,14.173,28.962,17.954,47.353,17.954c11.172,0,22.766-1.391,33.798-2.719c9.266-1.125,18.016-2.188,25.672-2.281
	c11.672-0.18,23.897,0.922,35.694,1.984c22.118,1.961,45.001,4,66.885-1.75c16.579-4.352,29.235-15.931,34.712-31.751
	C259.121,145.716,255.691,125.936,243.879,110.396z M170.775,141.56c1.938-7.914,14.656-9.383,17.758,0.625
	c2.75,8.852-6.453,12.657-12.797,9.93l-0.039-0.016l-2.133-1.297l-0.063-0.063h-0.023
	C170.658,148.442,169.932,145.044,170.775,141.56z M137.313,139.083l2.375-0.922c3.547-0.867,6.711,0.602,8.984,3.414
	c5.102,6.336-1.453,17.345-11.281,13.735C128.659,152.099,131.252,142.419,137.313,139.083z M216.026,166.537
	c-6.516,3.906-15.056,5.047-21.767,5.594c-6.922,0.57-13.891,0.82-20.781,0.82c-24.212,0-47.351-3.094-64.031-6.078
	c-1.414-0.258-2.359-1.609-2.102-3.047c0.258-1.406,1.609-2.352,3.023-2.094c21.117,3.766,52.71,7.75,83.461,5.203
	c6.141-0.516,13.915-1.531,19.509-4.875c1.242-0.742,2.844-0.352,3.594,0.891C217.659,164.186,217.269,165.787,216.026,166.537z"/>
</svg>
