<?xml version="1.0" encoding="utf-8"?>
<!-- Generator: Adobe Illustrator 16.0.0, SVG Export Plug-In . SVG Version: 6.00 Build 0)  -->
<!DOCTYPE svg PUBLIC "-//W3C//DTD SVG 1.1//EN" "http://www.w3.org/Graphics/SVG/1.1/DTD/svg11.dtd">
<svg version="1.1" xmlns="http://www.w3.org/2000/svg" xmlns:xlink="http://www.w3.org/1999/xlink" x="0px" y="0px"
	 width="340.158px" height="256px" viewBox="-42.079 0 340.158 256" enable-background="new -42.079 0 340.158 256"
	 xml:space="preserve">
<g id="Layer_2">
	<rect x="-42.079" fill="#9DBCC4" width="340.158" height="256"/>
</g>
<g id="Layer_1" display="none">
	<path display="inline" fill="#F8FCFE" d="M243.88,110.4c-10.66-14.06-25.439-21.1-41.61-19.89c-3.729,0.3-7.399,1.02-10.949,2.14
		c-1.86-14.91-14.15-27.59-32.721-33.44c-17.729-5.61-41.05-4.28-53.18,11.29c-2.79,3.54-6.12,8.15-8.61,13.47
		c-1.42-0.93-2.91-1.82-4.52-2.57c-8.87-4.15-19.72-4.71-28.3-1.4c-16.22,6.22-27.59,22.12-27.8,38.44
		c-8.52,1.49-20.71,4.68-28.71,15.19c-10.5,13.79-9.88,34.54,1.46,48.24c11.72,14.17,28.97,17.95,47.36,17.95
		c11.17,0,22.76-1.391,33.8-2.721c9.26-1.13,18.01-2.189,25.67-2.279c11.67-0.181,23.9,0.92,35.69,1.979c22.12,1.96,45,4,66.89-1.75
		c16.58-4.35,29.23-15.93,34.71-31.75C259.12,145.72,255.69,125.94,243.88,110.4z M170.78,141.56c0.359-1.47,1.09-2.71,2.06-3.699
		c0.26,0.229,0.53,0.46,0.811,0.689h0.05l0.16,0.16l5.239,3.18l0.101,0.04c3.069,1.32,6.41,2.011,9.74,2.11
		c1.02,7.52-7.32,10.6-13.2,8.08l-0.04-0.021l-2.141-1.3l-0.06-0.06h-0.02C170.66,148.44,169.93,145.04,170.78,141.56z
		 M145.63,138.95c1.13,0.64,2.15,1.53,3.04,2.63c5.1,6.33-1.45,17.34-11.28,13.729c-3.5-1.29-5.189-3.609-5.55-6.159
		C137.8,147.72,143.01,144.25,145.63,138.95z M207.04,179.9c-0.94,1.31-2.76,1.619-4.07,0.68c-0.97-0.7-1.939-1.41-2.91-2.11
		c-3.76-2.729-7.64-5.56-11.55-7.71c-7.41-4.069-16.979-5.3-28.439-3.64c-7.771,1.12-17.011,9.72-22.12,17.63
		c-0.561,0.87-1.49,1.34-2.45,1.34c-0.54,0-1.09-0.149-1.58-0.47c-1.36-0.87-1.75-2.68-0.87-4.04c5.83-9.03,16.19-18.8,26.181-20.24
		c12.75-1.84,23.55-0.39,32.09,4.3c4.239,2.33,8.27,5.271,12.17,8.11c0.96,0.7,1.92,1.39,2.88,2.08
		C207.68,176.77,207.98,178.59,207.04,179.9z"/>
</g>
<g id="Layer_1_copy" display="none">
	<path display="inline" fill="#F8FCFE" d="M243.88,110.4c-10.66-14.06-25.439-21.1-41.61-19.89c-3.729,0.3-7.399,1.02-10.949,2.14
		c-1.86-14.91-14.15-27.59-32.721-33.44c-17.729-5.61-41.05-4.28-53.18,11.29c-2.79,3.54-6.12,8.15-8.61,13.47
		c-1.42-0.93-2.91-1.82-4.52-2.57c-8.87-4.15-19.72-4.71-28.3-1.4c-16.22,6.22-27.59,22.12-27.8,38.44
		c-8.52,1.49-20.71,4.68-28.71,15.19c-10.5,13.79-9.88,34.54,1.46,48.24c11.72,14.17,28.97,17.95,47.36,17.95
		c11.17,0,22.76-1.391,33.8-2.721c9.26-1.13,18.01-2.189,25.67-2.279c11.67-0.181,23.9,0.92,35.69,1.979c22.12,1.96,45,4,66.89-1.75
		c16.58-4.35,29.23-15.93,34.71-31.75C259.12,145.72,255.69,125.94,243.88,110.4z"/>
	<path display="inline" fill="none" stroke="#000000" stroke-width="6" stroke-linecap="round" stroke-miterlimit="10" d="
		M114.5,148c6.703-8.481,16.855-17.031,23-26"/>
	<path display="inline" fill="none" stroke="#000000" stroke-width="6" stroke-linecap="round" stroke-miterlimit="10" d="M113,124
		c12.566,4.13,20.509,14.379,28.5,23.5"/>
	<path display="inline" fill="none" stroke="#000000" stroke-width="6" stroke-linecap="round" stroke-miterlimit="10" d="
		M171.5,119c10.643,6.001,18.453,14.178,24,25.5"/>
	<path display="inline" fill="none" stroke="#000000" stroke-width="6" stroke-linecap="round" stroke-miterlimit="10" d="
		M172.5,145c7.108-6.762,14.483-19.463,14.5-29.5"/>
	<path display="inline" fill="none" stroke="#000000" stroke-width="6" stroke-linecap="round" stroke-miterlimit="10" d="
		M138.5,171.5c16.699,2.895,38.544,1.895,53.891-5.572c3.842-1.869,7.663-3.691,10.109-6.928"/>
	<path display="inline" fill="none" stroke="#000000" stroke-width="6" stroke-linecap="round" stroke-miterlimit="10" d="
		M202.5,159c20.279,9.771,15.922,43.779-5.111,24.207c-3.527-3.281-5.858-7.902-7.889-12.207"/>
	<path display="inline" fill="none" stroke="#000000" stroke-width="6" stroke-linecap="round" stroke-miterlimit="10" d="M196,165
		c3.232,3.659,6.503,7.384,8,12"/>
	<g display="inline">
		<path fill="none" stroke="#000000" stroke-width="6" stroke-linecap="round" stroke-miterlimit="10" d="M81.374,68.357
			C77.651,58.08,97.592,53.349,104,57.937c9.36,6.702-2.413,12.757-5.147,19.673c-1.92,4.854-2.417,9.635,0.521,14.248"/>
		
			<line fill="none" stroke="#000000" stroke-width="6" stroke-linecap="round" stroke-miterlimit="10" x1="103.05" y1="100.318" x2="103.05" y2="100.318"/>
	</g>
	<g display="inline">
		<path fill="none" stroke="#000000" stroke-width="6" stroke-linecap="round" stroke-miterlimit="10" d="M146.621,39.936
			c1.808-10.78,21.501-5.104,24.827,2.042c4.859,10.436-8.37,9.925-14.149,14.605c-4.058,3.285-6.838,7.205-6.546,12.666"/>
		
			<line fill="none" stroke="#000000" stroke-width="6" stroke-linecap="round" stroke-miterlimit="10" x1="149.798" y1="78.423" x2="149.798" y2="78.423"/>
	</g>
	<g display="inline">
		<path fill="none" stroke="#000000" stroke-width="6" stroke-linecap="round" stroke-miterlimit="10" d="M197.669,55.46
			c6.321-8.918,21.578,4.769,21.461,12.648c-0.171,11.511-11.858,5.291-19.098,6.986c-5.083,1.19-9.294,3.508-11.409,8.551"/>
		
			<line fill="none" stroke="#000000" stroke-width="6" stroke-linecap="round" stroke-miterlimit="10" x1="183.77" y1="91.489" x2="183.77" y2="91.489"/>
	</g>
</g>
<g id="Layer_1_copy_2" display="none">
	<g display="inline">
		<path fill="none" stroke="#000000" stroke-width="6" stroke-linecap="round" stroke-miterlimit="10" d="M198.522,60.46
			c6.321-8.918,21.578,4.769,21.461,12.648c-0.171,11.511-11.858,5.291-19.098,6.986c-5.083,1.19-9.294,3.508-11.409,8.551"/>
		
			<line fill="none" stroke="#000000" stroke-width="6" stroke-linecap="round" stroke-miterlimit="10" x1="184.623" y1="96.489" x2="184.623" y2="96.489"/>
	</g>
	<path display="inline" fill="#F8FCFE" d="M203.14,162.78c-0.93,0.89-1.949,1.67-3.02,2.37c2.68,3.14,5.35,6.67,6.729,10.92
		c0.521,1.58-0.35,3.27-1.92,3.779c-0.31,0.101-0.62,0.15-0.93,0.15c-1.27,0-2.44-0.81-2.85-2.07c-1.17-3.609-3.75-6.779-6.41-9.819
		c-0.28,0.149-0.561,0.279-0.84,0.42l-0.2,0.09c-0.55,0.27-1.11,0.53-1.67,0.78c0.069,0.1,0.13,0.21,0.18,0.319
		c1.95,4.12,4.11,8.391,7.22,11.29c4.33,4.03,8.261,5.87,10.5,4.92c1.59-0.66,2.63-2.979,2.7-6.05
		C212.78,174.36,209.84,166.96,203.14,162.78z M203.14,162.78c-0.93,0.89-1.949,1.67-3.02,2.37c2.68,3.14,5.35,6.67,6.729,10.92
		c0.521,1.58-0.35,3.27-1.92,3.779c-0.31,0.101-0.62,0.15-0.93,0.15c-1.27,0-2.44-0.81-2.85-2.07c-1.17-3.609-3.75-6.779-6.41-9.819
		c-0.28,0.149-0.561,0.279-0.84,0.42l-0.2,0.09c-0.55,0.27-1.11,0.53-1.67,0.78c0.069,0.1,0.13,0.21,0.18,0.319
		c1.95,4.12,4.11,8.391,7.22,11.29c4.33,4.03,8.261,5.87,10.5,4.92c1.59-0.66,2.63-2.979,2.7-6.05
		C212.78,174.36,209.84,166.96,203.14,162.78z M243.88,110.4c-10.66-14.06-25.439-21.1-41.61-19.89
		c-3.729,0.3-7.399,1.02-10.949,2.14c-1.86-14.91-14.15-27.59-32.721-33.44c-17.729-5.61-41.05-4.28-53.18,11.29
		c-2.79,3.54-6.12,8.15-8.61,13.47c-1.42-0.93-2.91-1.82-4.52-2.57c-8.87-4.15-19.72-4.71-28.3-1.4
		c-16.22,6.22-27.59,22.12-27.8,38.44c-8.52,1.49-20.71,4.68-28.71,15.19c-10.5,13.79-9.88,34.54,1.46,48.24
		c11.72,14.17,28.97,17.95,47.36,17.95c11.17,0,22.76-1.391,33.8-2.721c9.26-1.13,18.01-2.189,25.67-2.279
		c11.67-0.181,23.9,0.92,35.69,1.979c22.12,1.96,45,4,66.89-1.75c16.58-4.35,29.23-15.93,34.71-31.75
		C259.12,145.72,255.69,125.94,243.88,110.4z M168.89,117.53c0.811-1.45,2.641-1.96,4.08-1.14c3.54,1.99,6.771,4.22,9.721,6.71
		c0.829-2.63,1.31-5.22,1.31-7.6c0-1.66,1.36-3.01,3-3c1.66,0,3,1.35,3,3c-0.01,3.85-0.97,8-2.55,12.07
		c4.27,4.49,7.83,9.67,10.74,15.61c0.729,1.49,0.119,3.28-1.37,4.011c-0.42,0.21-0.87,0.31-1.32,0.31c-1.11,0-2.17-0.62-2.69-1.68
		c-2.29-4.66-4.949-8.75-8.069-12.36c-2.87,5.4-6.58,10.3-10.17,13.71c-0.58,0.561-1.33,0.83-2.07,0.83c-0.79,0-1.58-0.31-2.17-0.93
		c-1.15-1.2-1.1-3.101,0.1-4.24c3.61-3.43,7.28-8.51,9.9-13.88c-3.04-2.74-6.46-5.17-10.3-7.34
		C168.58,120.8,168.07,118.97,168.89,117.53z M126.73,138.97c-3.63,3.771-7.06,7.32-9.88,10.891c-0.59,0.75-1.47,1.14-2.35,1.14
		c-0.65,0-1.31-0.21-1.86-0.65c-1.3-1.02-1.52-2.909-0.49-4.21c3-3.8,6.69-7.63,10.26-11.33c0.46-0.479,0.92-0.949,1.38-1.43
		c-3.48-2.78-7.32-5.08-11.73-6.53c-1.57-0.52-2.43-2.21-1.91-3.79c0.52-1.57,2.21-2.43,3.79-1.91c5.39,1.77,9.94,4.54,13.99,7.831
		c2.64-2.88,5.11-5.78,7.1-8.681c0.93-1.36,2.8-1.71,4.17-0.78c1.359,0.94,1.71,2.81,0.77,4.18c-2.17,3.17-4.8,6.26-7.569,9.29
		c3.239,3.16,6.199,6.59,9.119,9.96c0.75,0.859,1.49,1.72,2.24,2.569c1.09,1.25,0.96,3.15-0.279,4.24
		c-0.57,0.49-1.28,0.74-1.98,0.74c-0.83,0-1.66-0.35-2.26-1.02c-0.75-0.86-1.5-1.73-2.26-2.601c-2.801-3.24-5.641-6.52-8.71-9.51
		C127.76,137.91,127.24,138.44,126.73,138.97z M212.26,191.46c-1,0.42-2.2,0.72-3.63,0.72c-3.26,0-7.67-1.56-13.29-6.779
		c-3.89-3.62-6.359-8.471-8.55-13.12c-0.12-0.25-0.2-0.5-0.24-0.75c-9.55,3.22-20.21,4.439-30,4.439c-6.84,0-13.25-0.59-18.56-1.51
		c-1.63-0.29-2.73-1.84-2.45-3.47c0.29-1.641,1.84-2.73,3.47-2.45c14,2.43,36.03,2.49,52.07-5.31l0.2-0.101
		c3.529-1.71,6.859-3.33,8.83-5.939c0.06-0.07,0.109-0.141,0.18-0.21c0.06-0.07,0.14-0.141,0.21-0.2c0.13-0.13,0.28-0.24,0.43-0.33
		c0.12-0.07,0.24-0.141,0.37-0.19c0.12-0.06,0.24-0.1,0.37-0.14c0.01,0,0.021-0.01,0.03,0c0.109-0.04,0.21-0.061,0.319-0.07
		c0.16-0.03,0.32-0.05,0.48-0.05c0.14,0,0.28,0.01,0.41,0.04c0.109,0.01,0.229,0.03,0.34,0.07c0.08,0.01,0.15,0.029,0.23,0.06
		c0.109,0.04,0.22,0.08,0.319,0.13c0.04,0.021,0.09,0.04,0.13,0.07c10.391,5.06,14.9,15.8,14.7,23.67
		C218.49,185.57,216.11,189.85,212.26,191.46z M203.14,162.78c-0.93,0.89-1.949,1.67-3.02,2.37c2.68,3.14,5.35,6.67,6.729,10.92
		c0.521,1.58-0.35,3.27-1.92,3.779c-0.31,0.101-0.62,0.15-0.93,0.15c-1.27,0-2.44-0.81-2.85-2.07c-1.17-3.609-3.75-6.779-6.41-9.819
		c-0.28,0.149-0.561,0.279-0.84,0.42l-0.2,0.09c-0.55,0.27-1.11,0.53-1.67,0.78c0.069,0.1,0.13,0.21,0.18,0.319
		c1.95,4.12,4.11,8.391,7.22,11.29c4.33,4.03,8.261,5.87,10.5,4.92c1.59-0.66,2.63-2.979,2.7-6.05
		C212.78,174.36,209.84,166.96,203.14,162.78z"/>
	<g display="inline">
		<path fill="none" stroke="#000000" stroke-width="15.7596" stroke-linecap="round" stroke-miterlimit="10" d="M10.353,71.587
			c-9.778-26.994,42.598-39.421,59.43-27.37c24.585,17.604-6.339,33.508-13.521,51.672c-5.043,12.751-6.349,25.306,1.37,37.423"/>
		
			<line fill="none" stroke="#000000" stroke-width="15.7596" stroke-linecap="round" stroke-miterlimit="10" x1="67.287" y1="155.535" x2="67.287" y2="155.535"/>
	</g>
	<g display="inline">
		<path fill="none" stroke="#000000" stroke-width="10.4572" stroke-linecap="round" stroke-miterlimit="10" d="M141.911,28.841
			c3.15-18.789,37.473-8.895,43.271,3.558c8.469,18.188-14.588,17.298-24.661,25.455c-7.071,5.725-11.917,12.557-11.408,22.074"/>
		
			<line fill="none" stroke="#000000" stroke-width="10.4572" stroke-linecap="round" stroke-miterlimit="10" x1="147.447" y1="95.919" x2="147.447" y2="95.919"/>
	</g>
	<path display="inline" fill="none" stroke="#F8FCFE" stroke-width="6" stroke-linecap="round" stroke-miterlimit="10" d="
		M0.5,220.5c-21.391-6.75-18.46,32.495,3,14.5"/>
	<path display="inline" fill="none" stroke="#F8FCFE" stroke-width="6" stroke-linecap="round" stroke-miterlimit="10" d="M15.5,220
		c-1.343,6.335,0.151,13.536,3,19"/>
	<path display="inline" fill="none" stroke="#F8FCFE" stroke-width="6" stroke-linecap="round" stroke-miterlimit="10" d="M34,240
		c1.46-7.015-0.492-14.493-1.5-21.5"/>
	<path display="inline" fill="none" stroke="#F8FCFE" stroke-width="6" stroke-linecap="round" stroke-miterlimit="10" d="
		M20.5,216.5c5.202,1.341,11.972,0.093,17-2"/>
	<path display="inline" fill="none" stroke="#F8FCFE" stroke-width="6" stroke-linecap="round" stroke-miterlimit="10" d="M47,241
		c3.767-6.24,8.279-13.013,12-19"/>
	<path display="inline" fill="none" stroke="#F8FCFE" stroke-width="6" stroke-linecap="round" stroke-miterlimit="10" d="M43.5,218
		c1.033,4.418,5.069,8.983,8,12"/>
	
		<path display="inline" fill="none" stroke="#F8FCFE" stroke-width="6" stroke-linecap="round" stroke-linejoin="round" stroke-miterlimit="10" d="
		M85.5,239c0.011-5.479-0.162-10.81,1.1-15.948c3.903,4.456,6.14,10.423,8.512,15.771c3.227-5.968,5.06-14.146,4.889-21.323"/>
	<path display="inline" fill="none" stroke="#F8FCFE" stroke-width="6" stroke-linecap="round" stroke-miterlimit="10" d="M113,220
		c-5.383,4.505-9.478,22.354,2.612,18.753c9.417-2.806,3.969-16.41-2.612-19.253"/>
	<path display="inline" fill="none" stroke="#F8FCFE" stroke-width="6" stroke-linecap="round" stroke-miterlimit="10" d="
		M135.5,239c0.988-5.08,0.467-11.557,0-17"/>
	<path display="inline" fill="none" stroke="#F8FCFE" stroke-width="6" stroke-linecap="round" stroke-miterlimit="10" d="
		M124,219.5c4.586,2.106,14.104,2.729,19,1"/>
	<path display="inline" fill="none" stroke="#F8FCFE" stroke-width="6" stroke-linecap="round" stroke-miterlimit="10" d="
		M163.5,235c-0.1-6.112,1.275-11.67,1.075-17.925c4.475,0.699,8.527,2.417,13.425,1.925"/>
	<path display="inline" fill="none" stroke="#F8FCFE" stroke-width="6" stroke-linecap="round" stroke-miterlimit="10" d="M193,221
		c-27.503,1.709,12.462,38.34,7.988,8.713c-0.75-4.967-2.629-8.738-8.488-7.713"/>
	<path display="inline" fill="none" stroke="#F8FCFE" stroke-width="6" stroke-linecap="round" stroke-miterlimit="10" d="
		M166,224.5c0.974,1.014,3.008,1.822,5,2"/>
	<path display="inline" fill="none" stroke="#F8FCFE" stroke-width="6" stroke-linecap="round" stroke-miterlimit="10" d="
		M209.5,223c-1.626,4.998-2.536,18.543,5.529,19.028c7.356,0.443,7.723-11.902,7.971-17.028"/>
	
		<path display="inline" fill="none" stroke="#F8FCFE" stroke-width="6" stroke-linecap="round" stroke-linejoin="round" stroke-miterlimit="10" d="
		M231.5,237c0.74-4.958,2.176-10,3.125-14.812c3.999,5.534,6.225,13.231,10.875,17.76c1.826-4.508,2.685-9.95,3-14.448"/>
	<path display="inline" fill="none" stroke="#F8FCFE" stroke-width="6" stroke-linecap="round" stroke-miterlimit="10" d="
		M259.5,223.5c1.248,6.861,1.805,14.801,1.5,22"/>
	<path display="inline" fill="none" stroke="#F8FCFE" stroke-width="6" stroke-linecap="round" stroke-miterlimit="10" d="
		M259.5,223.5c19.849-9.963,17.321,34.078,2,24"/>
</g>
<g id="Layer_1_copy_3">
	<path fill="#F8FCFE" d="M203.14,162.78c-0.93,0.89-1.949,1.67-3.02,2.37c2.68,3.14,5.35,6.67,6.729,10.92
		c0.521,1.58-0.35,3.27-1.92,3.779c-0.31,0.101-0.62,0.15-0.93,0.15c-1.27,0-2.44-0.81-2.85-2.07c-1.17-3.609-3.75-6.779-6.41-9.819
		c-0.28,0.149-0.561,0.279-0.84,0.42l-0.2,0.09c-0.55,0.27-1.11,0.53-1.67,0.78c0.069,0.1,0.13,0.21,0.18,0.319
		c1.95,4.12,4.11,8.391,7.22,11.29c4.33,4.03,8.261,5.87,10.5,4.92c1.59-0.66,2.63-2.979,2.7-6.05
		C212.78,174.36,209.84,166.96,203.14,162.78z M203.14,162.78c-0.93,0.89-1.949,1.67-3.02,2.37c2.68,3.14,5.35,6.67,6.729,10.92
		c0.521,1.58-0.35,3.27-1.92,3.779c-0.31,0.101-0.62,0.15-0.93,0.15c-1.27,0-2.44-0.81-2.85-2.07c-1.17-3.609-3.75-6.779-6.41-9.819
		c-0.28,0.149-0.561,0.279-0.84,0.42l-0.2,0.09c-0.55,0.27-1.11,0.53-1.67,0.78c0.069,0.1,0.13,0.21,0.18,0.319
		c1.95,4.12,4.11,8.391,7.22,11.29c4.33,4.03,8.261,5.87,10.5,4.92c1.59-0.66,2.63-2.979,2.7-6.05
		C212.78,174.36,209.84,166.96,203.14,162.78z M203.14,162.78c-0.93,0.89-1.949,1.67-3.02,2.37c2.68,3.14,5.35,6.67,6.729,10.92
		c0.521,1.58-0.35,3.27-1.92,3.779c-0.31,0.101-0.62,0.15-0.93,0.15c-1.27,0-2.44-0.81-2.85-2.07c-1.17-3.609-3.75-6.779-6.41-9.819
		c-0.28,0.149-0.561,0.279-0.84,0.42l-0.2,0.09c-0.55,0.27-1.11,0.53-1.67,0.78c0.069,0.1,0.13,0.21,0.18,0.319
		c1.95,4.12,4.11,8.391,7.22,11.29c4.33,4.03,8.261,5.87,10.5,4.92c1.59-0.66,2.63-2.979,2.7-6.05
		C212.78,174.36,209.84,166.96,203.14,162.78z M203.14,162.78c-0.93,0.89-1.949,1.67-3.02,2.37c2.68,3.14,5.35,6.67,6.729,10.92
		c0.521,1.58-0.35,3.27-1.92,3.779c-0.31,0.101-0.62,0.15-0.93,0.15c-1.27,0-2.44-0.81-2.85-2.07c-1.17-3.609-3.75-6.779-6.41-9.819
		c-0.28,0.149-0.561,0.279-0.84,0.42l-0.2,0.09c-0.55,0.27-1.11,0.53-1.67,0.78c0.069,0.1,0.13,0.21,0.18,0.319
		c1.95,4.12,4.11,8.391,7.22,11.29c4.33,4.03,8.261,5.87,10.5,4.92c1.59-0.66,2.63-2.979,2.7-6.05
		C212.78,174.36,209.84,166.96,203.14,162.78z M203.14,162.78c-0.93,0.89-1.949,1.67-3.02,2.37c2.68,3.14,5.35,6.67,6.729,10.92
		c0.521,1.58-0.35,3.27-1.92,3.779c-0.31,0.101-0.62,0.15-0.93,0.15c-1.27,0-2.44-0.81-2.85-2.07c-1.17-3.609-3.75-6.779-6.41-9.819
		c-0.28,0.149-0.561,0.279-0.84,0.42l-0.2,0.09c-0.55,0.27-1.11,0.53-1.67,0.78c0.069,0.1,0.13,0.21,0.18,0.319
		c1.95,4.12,4.11,8.391,7.22,11.29c4.33,4.03,8.261,5.87,10.5,4.92c1.59-0.66,2.63-2.979,2.7-6.05
		C212.78,174.36,209.84,166.96,203.14,162.78z M203.14,162.78c-0.93,0.89-1.949,1.67-3.02,2.37c2.68,3.14,5.35,6.67,6.729,10.92
		c0.521,1.58-0.35,3.27-1.92,3.779c-0.31,0.101-0.62,0.15-0.93,0.15c-1.27,0-2.44-0.81-2.85-2.07c-1.17-3.609-3.75-6.779-6.41-9.819
		c-0.28,0.149-0.561,0.279-0.84,0.42l-0.2,0.09c-0.55,0.27-1.11,0.53-1.67,0.78c0.069,0.1,0.13,0.21,0.18,0.319
		c1.95,4.12,4.11,8.391,7.22,11.29c4.33,4.03,8.261,5.87,10.5,4.92c1.59-0.66,2.63-2.979,2.7-6.05
		C212.78,174.36,209.84,166.96,203.14,162.78z M203.14,162.78c-0.93,0.89-1.949,1.67-3.02,2.37c2.68,3.14,5.35,6.67,6.729,10.92
		c0.521,1.58-0.35,3.27-1.92,3.779c-0.31,0.101-0.62,0.15-0.93,0.15c-1.27,0-2.44-0.81-2.85-2.07c-1.17-3.609-3.75-6.779-6.41-9.819
		c-0.28,0.149-0.561,0.279-0.84,0.42l-0.2,0.09c-0.55,0.27-1.11,0.53-1.67,0.78c0.069,0.1,0.13,0.21,0.18,0.319
		c1.95,4.12,4.11,8.391,7.22,11.29c4.33,4.03,8.261,5.87,10.5,4.92c1.59-0.66,2.63-2.979,2.7-6.05
		C212.78,174.36,209.84,166.96,203.14,162.78z M203.14,162.78c-0.93,0.89-1.949,1.67-3.02,2.37c2.68,3.14,5.35,6.67,6.729,10.92
		c0.521,1.58-0.35,3.27-1.92,3.779c-0.31,0.101-0.62,0.15-0.93,0.15c-1.27,0-2.44-0.81-2.85-2.07c-1.17-3.609-3.75-6.779-6.41-9.819
		c-0.28,0.149-0.561,0.279-0.84,0.42l-0.2,0.09c-0.55,0.27-1.11,0.53-1.67,0.78c0.069,0.1,0.13,0.21,0.18,0.319
		c1.95,4.12,4.11,8.391,7.22,11.29c4.33,4.03,8.261,5.87,10.5,4.92c1.59-0.66,2.63-2.979,2.7-6.05
		C212.78,174.36,209.84,166.96,203.14,162.78z M243.88,110.4c-10.66-14.06-25.439-21.1-41.61-19.89
		c-3.729,0.3-7.399,1.02-10.949,2.14c-0.23-1.85-0.62-3.66-1.17-5.44c-0.431,0.18-0.9,0.28-1.391,0.28c-0.08,0-0.17,0-0.25-0.01
		c-1.979-0.13-3.479-1.84-3.34-3.83c0.12-1.75,0.44-3.41,0.97-4.98c-5.06-7.84-13.449-14.29-24.239-18.32
		c-3.45,4.85-4.4,9.13-3.101,13.69c0.61,2.16-0.64,4.41-2.8,5.02c-0.37,0.11-0.74,0.16-1.11,0.16c-1.77,0-3.399-1.17-3.909-2.96
		c-1.761-6.21-0.841-12.25,2.819-18.36c-12.859-3-27.7-2.37-38.94,4.32c-0.21,3.96,0.79,7.2,3.07,10.1
		c1.45,1.84,1.12,4.51-0.72,5.96c-0.78,0.61-1.7,0.91-2.62,0.91c-1.26,0-2.51-0.56-3.35-1.63c-2.13-2.72-3.56-5.67-4.29-8.89
		c-0.53,0.59-1.04,1.2-1.53,1.83c-2.79,3.54-6.12,8.15-8.61,13.47c-1.42-0.93-2.91-1.82-4.52-2.57c-8.87-4.15-19.72-4.71-28.3-1.4
		c-16.22,6.22-27.59,22.12-27.8,38.44c-8.52,1.49-20.71,4.68-28.71,15.19c-10.5,13.79-9.88,34.54,1.46,48.24
		c11.72,14.17,28.97,17.95,47.36,17.95c11.17,0,22.76-1.391,33.8-2.721c9.26-1.13,18.01-2.189,25.67-2.279
		c11.67-0.181,23.9,0.92,35.69,1.979c22.12,1.96,45,4,66.89-1.75c16.58-4.35,29.23-15.93,34.71-31.75
		C259.12,145.72,255.69,125.94,243.88,110.4z M183.75,92.14c0.67-0.67,1.6-1.06,2.55-1.06s1.87,0.39,2.54,1.06
		s1.061,1.59,1.061,2.54c0,0.95-0.391,1.87-1.061,2.54c-0.67,0.67-1.6,1.06-2.54,1.06c-0.95,0-1.88-0.39-2.55-1.06
		c-0.67-0.67-1.05-1.59-1.05-2.54C182.7,93.73,183.08,92.8,183.75,92.14z M168.89,117.53c0.811-1.45,2.641-1.96,4.08-1.14
		c3.54,1.99,6.771,4.22,9.721,6.71c0.829-2.63,1.31-5.22,1.31-7.6c0-1.66,1.36-3.01,3-3c1.66,0,3,1.35,3,3
		c-0.01,3.85-0.97,8-2.55,12.07c4.27,4.49,7.83,9.67,10.74,15.61c0.729,1.49,0.119,3.28-1.37,4.011c-0.42,0.21-0.87,0.31-1.32,0.31
		c-1.11,0-2.17-0.62-2.69-1.68c-2.29-4.66-4.949-8.75-8.069-12.36c-2.87,5.4-6.58,10.3-10.17,13.71c-0.58,0.561-1.33,0.83-2.07,0.83
		c-0.79,0-1.58-0.31-2.17-0.93c-1.15-1.2-1.1-3.101,0.1-4.24c3.61-3.43,7.28-8.51,9.9-13.88c-3.04-2.74-6.46-5.17-10.3-7.34
		C168.58,120.8,168.07,118.97,168.89,117.53z M153.51,84.68c0.75-0.75,1.8-1.19,2.87-1.19s2.12,0.44,2.88,1.19
		c0.75,0.76,1.19,1.81,1.19,2.88s-0.44,2.11-1.19,2.87c-0.76,0.76-1.81,1.19-2.88,1.19s-2.12-0.43-2.87-1.19
		c-0.76-0.75-1.189-1.8-1.189-2.87S152.75,85.44,153.51,84.68z M117.93,83.35c0.79-0.79,1.89-1.25,3.01-1.25s2.21,0.46,3,1.25
		s1.24,1.88,1.24,3s-0.45,2.21-1.24,3.01c-0.79,0.79-1.88,1.24-3,1.24s-2.22-0.45-3.01-1.24c-0.79-0.8-1.24-1.89-1.24-3.01
		S117.14,84.14,117.93,83.35z M126.73,138.97c-3.63,3.771-7.06,7.32-9.88,10.891c-0.59,0.75-1.47,1.14-2.35,1.14
		c-0.65,0-1.31-0.21-1.86-0.65c-1.3-1.02-1.52-2.909-0.49-4.21c3-3.8,6.69-7.63,10.26-11.33c0.46-0.479,0.92-0.949,1.38-1.43
		c-3.48-2.78-7.32-5.08-11.73-6.53c-1.57-0.52-2.43-2.21-1.91-3.79c0.52-1.57,2.21-2.43,3.79-1.91c5.39,1.77,9.94,4.54,13.99,7.831
		c2.64-2.88,5.11-5.78,7.1-8.681c0.93-1.36,2.8-1.71,4.17-0.78c1.359,0.94,1.71,2.81,0.77,4.18c-2.17,3.17-4.8,6.26-7.569,9.29
		c3.239,3.16,6.199,6.59,9.119,9.96c0.75,0.859,1.49,1.72,2.24,2.569c1.09,1.25,0.96,3.15-0.279,4.24
		c-0.57,0.49-1.28,0.74-1.98,0.74c-0.83,0-1.66-0.35-2.26-1.02c-0.75-0.86-1.5-1.73-2.26-2.601c-2.801-3.24-5.641-6.52-8.71-9.51
		C127.76,137.91,127.24,138.44,126.73,138.97z M212.26,191.46c-1,0.42-2.2,0.72-3.63,0.72c-3.26,0-7.67-1.56-13.29-6.779
		c-3.89-3.62-6.359-8.471-8.55-13.12c-0.12-0.25-0.2-0.5-0.24-0.75c-9.55,3.22-20.21,4.439-30,4.439c-6.84,0-13.25-0.59-18.56-1.51
		c-1.63-0.29-2.73-1.84-2.45-3.47c0.29-1.641,1.84-2.73,3.47-2.45c14,2.43,36.03,2.49,52.07-5.31l0.2-0.101
		c3.529-1.71,6.859-3.33,8.83-5.939c0.06-0.07,0.109-0.141,0.18-0.21c0.06-0.07,0.14-0.141,0.21-0.2c0.13-0.13,0.28-0.24,0.43-0.33
		c0.12-0.07,0.24-0.141,0.37-0.19c0.12-0.06,0.24-0.1,0.37-0.14c0.01,0,0.021-0.01,0.03,0c0.109-0.04,0.21-0.061,0.319-0.07
		c0.16-0.03,0.32-0.05,0.48-0.05c0.14,0,0.28,0.01,0.41,0.04c0.109,0.01,0.229,0.03,0.34,0.07c0.08,0.01,0.15,0.029,0.23,0.06
		c0.109,0.04,0.22,0.08,0.319,0.13c0.04,0.021,0.09,0.04,0.13,0.07c10.391,5.06,14.9,15.8,14.7,23.67
		C218.49,185.57,216.11,189.85,212.26,191.46z M203.14,162.78c-0.93,0.89-1.949,1.67-3.02,2.37c2.68,3.14,5.35,6.67,6.729,10.92
		c0.521,1.58-0.35,3.27-1.92,3.779c-0.31,0.101-0.62,0.15-0.93,0.15c-1.27,0-2.44-0.81-2.85-2.07c-1.17-3.609-3.75-6.779-6.41-9.819
		c-0.28,0.149-0.561,0.279-0.84,0.42l-0.2,0.09c-0.55,0.27-1.11,0.53-1.67,0.78c0.069,0.1,0.13,0.21,0.18,0.319
		c1.95,4.12,4.11,8.391,7.22,11.29c4.33,4.03,8.261,5.87,10.5,4.92c1.59-0.66,2.63-2.979,2.7-6.05
		C212.78,174.36,209.84,166.96,203.14,162.78z M203.14,162.78c-0.93,0.89-1.949,1.67-3.02,2.37c2.68,3.14,5.35,6.67,6.729,10.92
		c0.521,1.58-0.35,3.27-1.92,3.779c-0.31,0.101-0.62,0.15-0.93,0.15c-1.27,0-2.44-0.81-2.85-2.07c-1.17-3.609-3.75-6.779-6.41-9.819
		c-0.28,0.149-0.561,0.279-0.84,0.42l-0.2,0.09c-0.55,0.27-1.11,0.53-1.67,0.78c0.069,0.1,0.13,0.21,0.18,0.319
		c1.95,4.12,4.11,8.391,7.22,11.29c4.33,4.03,8.261,5.87,10.5,4.92c1.59-0.66,2.63-2.979,2.7-6.05
		C212.78,174.36,209.84,166.96,203.14,162.78z M203.14,162.78c-0.93,0.89-1.949,1.67-3.02,2.37c2.68,3.14,5.35,6.67,6.729,10.92
		c0.521,1.58-0.35,3.27-1.92,3.779c-0.31,0.101-0.62,0.15-0.93,0.15c-1.27,0-2.44-0.81-2.85-2.07c-1.17-3.609-3.75-6.779-6.41-9.819
		c-0.28,0.149-0.561,0.279-0.84,0.42l-0.2,0.09c-0.55,0.27-1.11,0.53-1.67,0.78c0.069,0.1,0.13,0.21,0.18,0.319
		c1.95,4.12,4.11,8.391,7.22,11.29c4.33,4.03,8.261,5.87,10.5,4.92c1.59-0.66,2.63-2.979,2.7-6.05
		C212.78,174.36,209.84,166.96,203.14,162.78z M203.14,162.78c-0.93,0.89-1.949,1.67-3.02,2.37c2.68,3.14,5.35,6.67,6.729,10.92
		c0.521,1.58-0.35,3.27-1.92,3.779c-0.31,0.101-0.62,0.15-0.93,0.15c-1.27,0-2.44-0.81-2.85-2.07c-1.17-3.609-3.75-6.779-6.41-9.819
		c-0.28,0.149-0.561,0.279-0.84,0.42l-0.2,0.09c-0.55,0.27-1.11,0.53-1.67,0.78c0.069,0.1,0.13,0.21,0.18,0.319
		c1.95,4.12,4.11,8.391,7.22,11.29c4.33,4.03,8.261,5.87,10.5,4.92c1.59-0.66,2.63-2.979,2.7-6.05
		C212.78,174.36,209.84,166.96,203.14,162.78z M203.14,162.78c-0.93,0.89-1.949,1.67-3.02,2.37c2.68,3.14,5.35,6.67,6.729,10.92
		c0.521,1.58-0.35,3.27-1.92,3.779c-0.31,0.101-0.62,0.15-0.93,0.15c-1.27,0-2.44-0.81-2.85-2.07c-1.17-3.609-3.75-6.779-6.41-9.819
		c-0.28,0.149-0.561,0.279-0.84,0.42l-0.2,0.09c-0.55,0.27-1.11,0.53-1.67,0.78c0.069,0.1,0.13,0.21,0.18,0.319
		c1.95,4.12,4.11,8.391,7.22,11.29c4.33,4.03,8.261,5.87,10.5,4.92c1.59-0.66,2.63-2.979,2.7-6.05
		C212.78,174.36,209.84,166.96,203.14,162.78z M203.14,162.78c-0.93,0.89-1.949,1.67-3.02,2.37c2.68,3.14,5.35,6.67,6.729,10.92
		c0.521,1.58-0.35,3.27-1.92,3.779c-0.31,0.101-0.62,0.15-0.93,0.15c-1.27,0-2.44-0.81-2.85-2.07c-1.17-3.609-3.75-6.779-6.41-9.819
		c-0.28,0.149-0.561,0.279-0.84,0.42l-0.2,0.09c-0.55,0.27-1.11,0.53-1.67,0.78c0.069,0.1,0.13,0.21,0.18,0.319
		c1.95,4.12,4.11,8.391,7.22,11.29c4.33,4.03,8.261,5.87,10.5,4.92c1.59-0.66,2.63-2.979,2.7-6.05
		C212.78,174.36,209.84,166.96,203.14,162.78z M203.14,162.78c-0.93,0.89-1.949,1.67-3.02,2.37c2.68,3.14,5.35,6.67,6.729,10.92
		c0.521,1.58-0.35,3.27-1.92,3.779c-0.31,0.101-0.62,0.15-0.93,0.15c-1.27,0-2.44-0.81-2.85-2.07c-1.17-3.609-3.75-6.779-6.41-9.819
		c-0.28,0.149-0.561,0.279-0.84,0.42l-0.2,0.09c-0.55,0.27-1.11,0.53-1.67,0.78c0.069,0.1,0.13,0.21,0.18,0.319
		c1.95,4.12,4.11,8.391,7.22,11.29c4.33,4.03,8.261,5.87,10.5,4.92c1.59-0.66,2.63-2.979,2.7-6.05
		C212.78,174.36,209.84,166.96,203.14,162.78z"/>
	<g>
		<g>
			<path fill="#F8FCFE" d="M180.75,41.2c-0.93,5.63-5.96,8.97-10.83,12.2c-2.68,1.78-5.46,3.62-6.99,5.57
				c-0.37,0.47-0.71,0.92-1.029,1.38c-1.08-0.41-2.181-0.79-3.301-1.14c-1.56-0.49-3.159-0.93-4.8-1.31
				c0.79-1.32,1.7-2.64,2.74-3.96c2.34-2.97,5.67-5.18,8.89-7.31c3.261-2.16,6.95-4.61,7.301-6.75c0.22-1.38-0.91-3.19-1.9-4.47
				c-2.97-3.84-14.48-6.41-21.74-3.69c-4.63,1.74-4.46,4.63-4.399,5.72c0.13,2.24-1.58,4.16-3.82,4.29
				c-2.25,0.13-4.16-1.58-4.29-3.82c-0.37-6.34,3.16-11.36,9.66-13.8c10.22-3.82,25.58-0.69,31.01,6.32
				C180.13,34.15,181.31,37.77,180.75,41.2z"/>
		</g>
	</g>
	<g>
		<g>
			<path fill="#F8FCFE" d="M220.43,63.32c-2.449,4.41-7.64,5.69-12.66,6.93c-2.77,0.69-5.63,1.4-7.489,2.56
				c-5.181,3.25-7.63,6.74-7.94,11.33c-0.1,1.4-0.979,2.56-2.189,3.07c-0.91-2.98-2.261-5.84-4.011-8.54
				c1.58-4.67,4.99-8.61,10.32-11.95c2.83-1.78,6.271-2.63,9.59-3.45c3.36-0.83,7.16-1.77,8.09-3.45c0.601-1.08,0.2-2.93-0.25-4.29
				c-1.33-4.08-10.12-9.65-17.01-9.55c-4.38,0.06-5.1,2.52-5.37,3.45c-0.56,1.9-2.56,2.99-4.47,2.43s-3-2.56-2.43-4.46
				c1.58-5.39,6.02-8.53,12.159-8.62h0.28c9.61,0,21.271,7.12,23.681,14.52C222.02,57.26,221.92,60.63,220.43,63.32z"/>
		</g>
	</g>
	<g>
		<g>
			<path fill="#F8FCFE" d="M120.53,47.95c-1.89,2.78-3.85,5.67-4.56,8.15c-0.64,2.23-1.01,4.26-1.11,6.12
				c-2.91,1.73-5.58,3.87-7.91,6.45c-1.03-4.43-0.74-9.37,0.85-14.9c1.09-3.8,3.43-7.26,5.71-10.6c2.29-3.38,4.89-7.21,4.39-9.41
				c-0.33-1.43-2.14-2.74-3.61-3.58c-4.39-2.53-16.54-0.47-22.49,5.03c-3.79,3.51-2.48,6.24-1.99,7.27
				c1.01,2.12,0.11,4.66-2.01,5.67c-2.11,1.01-4.65,0.11-5.66-2.01c-2.85-5.98-1.43-12.24,3.89-17.16
				c8.38-7.75,24.48-10.79,32.51-6.16c4.26,2.46,6.83,5.5,7.64,9.04C127.51,37.68,123.96,42.9,120.53,47.95z"/>
		</g>
	</g>
	<path fill="none" stroke="#F8FCFE" stroke-width="6" stroke-linecap="round" stroke-miterlimit="10" d="M0.5,220.5
		c-21.391-6.75-18.46,32.495,3,14.5"/>
	<path fill="none" stroke="#F8FCFE" stroke-width="6" stroke-linecap="round" stroke-miterlimit="10" d="M15.5,220
		c-1.343,6.335,0.151,13.536,3,19"/>
	<path fill="none" stroke="#F8FCFE" stroke-width="6" stroke-linecap="round" stroke-miterlimit="10" d="M34,240
		c1.46-7.015-0.492-14.493-1.5-21.5"/>
	<path fill="none" stroke="#F8FCFE" stroke-width="6" stroke-linecap="round" stroke-miterlimit="10" d="M20.5,216.5
		c5.202,1.341,11.972,0.093,17-2"/>
	<path fill="none" stroke="#F8FCFE" stroke-width="6" stroke-linecap="round" stroke-miterlimit="10" d="M47,241
		c3.767-6.24,8.279-13.013,12-19"/>
	<path fill="none" stroke="#F8FCFE" stroke-width="6" stroke-linecap="round" stroke-miterlimit="10" d="M43.5,218
		c1.033,4.418,5.069,8.983,8,12"/>
	<path fill="none" stroke="#F8FCFE" stroke-width="6" stroke-linecap="round" stroke-linejoin="round" stroke-miterlimit="10" d="
		M85.5,239c0.011-5.479-0.162-10.81,1.1-15.948c3.903,4.456,6.14,10.423,8.512,15.771c3.227-5.968,5.06-14.146,4.889-21.323"/>
	<path fill="none" stroke="#F8FCFE" stroke-width="6" stroke-linecap="round" stroke-miterlimit="10" d="M113,220
		c-5.383,4.505-9.478,22.354,2.612,18.753c9.417-2.806,3.969-16.41-2.612-19.253"/>
	<path fill="none" stroke="#F8FCFE" stroke-width="6" stroke-linecap="round" stroke-miterlimit="10" d="M135.5,239
		c0.988-5.08,0.467-11.557,0-17"/>
	<path fill="none" stroke="#F8FCFE" stroke-width="6" stroke-linecap="round" stroke-miterlimit="10" d="M124,219.5
		c4.586,2.106,14.104,2.729,19,1"/>
	<path fill="none" stroke="#F8FCFE" stroke-width="6" stroke-linecap="round" stroke-miterlimit="10" d="M163.5,235
		c-0.1-6.112,1.275-11.67,1.075-17.925c4.475,0.699,8.527,2.417,13.425,1.925"/>
	<path fill="none" stroke="#F8FCFE" stroke-width="6" stroke-linecap="round" stroke-miterlimit="10" d="M193,221
		c-27.503,1.709,12.462,38.34,7.988,8.713c-0.75-4.967-2.629-8.738-8.488-7.713"/>
	<path fill="none" stroke="#F8FCFE" stroke-width="6" stroke-linecap="round" stroke-miterlimit="10" d="M166,224.5
		c0.974,1.014,3.008,1.822,5,2"/>
	<path fill="none" stroke="#F8FCFE" stroke-width="6" stroke-linecap="round" stroke-miterlimit="10" d="M209.5,223
		c-1.626,4.998-2.536,18.543,5.529,19.028c7.356,0.443,7.723-11.902,7.971-17.028"/>
	<path fill="none" stroke="#F8FCFE" stroke-width="6" stroke-linecap="round" stroke-linejoin="round" stroke-miterlimit="10" d="
		M231.5,237c0.74-4.958,2.176-10,3.125-14.812c3.999,5.534,6.225,13.231,10.875,17.76c1.826-4.508,2.685-9.95,3-14.448"/>
	<path fill="none" stroke="#F8FCFE" stroke-width="6" stroke-linecap="round" stroke-miterlimit="10" d="M259.5,223.5
		c1.248,6.861,1.805,14.801,1.5,22"/>
	<path fill="none" stroke="#F8FCFE" stroke-width="6" stroke-linecap="round" stroke-miterlimit="10" d="M259.5,223.5
		c19.849-9.963,17.321,34.078,2,24"/>
</g>
<g id="Layer_3">
</g>
</svg>
