<?xml version="1.0" encoding="utf-8"?>
<!-- Generator: Adobe Illustrator 16.0.0, SVG Export Plug-In . SVG Version: 6.00 Build 0)  -->
<!DOCTYPE svg PUBLIC "-//W3C//DTD SVG 1.1//EN" "http://www.w3.org/Graphics/SVG/1.1/DTD/svg11.dtd">
<svg version="1.1" id="Layer_1" xmlns="http://www.w3.org/2000/svg" xmlns:xlink="http://www.w3.org/1999/xlink" x="0px" y="0px"
	 width="256px" height="256px" viewBox="0 0 256 256" enable-background="new 0 0 256 256" xml:space="preserve">
<g>
	<g>
		<path fill="#F8FCFF" d="M152.071,204.712c-2.354,0-4.709-0.146-7.032-0.445c-11.413-1.468-20.963-6.378-26.891-13.827
			c-5.661-7.112-8.508-14.977-8.233-22.743c0.252-7.115,3.073-13.967,8.158-19.814c6.136-7.056,15.377-12.286,25.353-14.352
			c9.098-1.883,18.129-1.063,25.92,2.289c0.711,0.113,1.421,0.311,2.116,0.6c7.753,3.22,17.804,10.676,21.653,27.918
			c1.772,7.936,0.699,15.556-3.103,22.035c-3.278,5.587-8.559,10.237-15.271,13.446C168.05,203.017,160.066,204.712,152.071,204.712
			z M152.947,151.11c-8.056,0-16.265,3.723-20.838,8.98c-5.038,5.793-4.844,11.932,0.594,18.764
			c6.059,7.611,22.588,9.643,34.013,4.18c10.401-4.973,8.776-12.252,8.242-14.644c-1.696-7.598-4.814-11.267-7.726-13.244
			c-1.06-0.189-2.104-0.567-3.086-1.146C160.74,151.99,156.861,151.11,152.947,151.11z"/>
	</g>
	<g>
		<path fill-rule="evenodd" clip-rule="evenodd" fill="#F8FCFF" d="M62.562,87.634c-18.665-1.469-27.732,20.955-9.189,30.694
			c16.506,8.669,32.816-4.036,22.598-21.466c-3.696-6.303-10.428-10.324-17.894-9.126"/>
	</g>
	<g>
		<path fill-rule="evenodd" clip-rule="evenodd" fill="#F8FCFF" d="M195.984,52.268c-19.008,0.87-27.504,21.404-8.961,31.143
			c16.507,8.67,32.816-4.035,22.598-21.466c-3.695-6.304-10.118-9.266-17.063-10.656"/>
	</g>
</g>
<g>
	<g opacity="0.5">
		<path fill="#F8FCFF" d="M256,119.003v17.315c-1.352,0.278-2.71,0.557-4.077,0.843c-8.831,1.829-17.965,3.721-27.285,4.593
			c-1.5,0.14-3.1,0.238-4.763,0.238c-6.522,0-14.107-1.531-21.339-8.193c-0.934-0.865-1.779-1.673-2.598-2.454
			c-4.624-4.424-6.183-5.915-11.316-5.925c-3.181-0.003-6.349,0.119-9.513,0.34c-13.323,0.93-26.551,3.646-40.403,6.495
			c-3.891,0.801-7.806,1.605-11.751,2.376c-13.812,2.692-27.963,4.92-42.508,4.825c-2.262-0.014-4.53-0.085-6.808-0.221
			c-5.344-0.313-10.504-1.131-15.509-2.462c-0.003,0-0.003,0-0.003,0c-11.018-2.92-21.278-8.325-31.066-16.328
			c-6.054-4.947-10.634-8.41-16.158-9.785c-1.691-0.424-3.47-0.648-5.409-0.662H4.938c-1.646,0-3.293,0.047-4.937,0.139V93.145
			c1.861-0.092,3.731-0.132,5.605-0.122c5.178,0.034,9.721,1.012,13.768,2.54c1.433,0.543,2.808,1.154,4.122,1.816
			c5.625,2.825,10.23,6.59,14.311,9.925c1.545,1.263,3.093,2.441,4.648,3.538c10.053,7.092,20.405,10.756,32.18,11.449
			c5.663,0.333,11.275,0.227,16.881-0.193c13.105-0.978,26.173-3.67,39.768-6.468c17.149-3.531,34.886-7.184,53.132-7.184h0.238
			c6.804,0.01,11.561,1.772,15.404,4.254c2.896,1.864,5.272,4.139,7.615,6.38c0.761,0.727,1.548,1.48,2.369,2.234
			c3.413,3.147,6.943,4.105,13.018,3.538c8.38-0.781,16.657-2.496,25.42-4.312C250.968,120.021,253.474,119.502,256,119.003z"/>
	</g>
	<g opacity="0.5">
		<path fill="#F8FCFF" d="M255.999,184.649v17.55c-2.431,0.655-4.886,1.334-7.378,2.027c-10.986,3.045-22.307,6.186-34.169,7.611
			c-1.491,0.181-2.988,0.33-4.495,0.452c-1.552,0.125-3.076,0.184-4.581,0.18c-9.173-0.003-17.535-2.159-25.66-4.247
			c-8.845-2.278-17.197-4.428-25.841-3.531c-20.538,2.132-39.385,9.112-59.339,16.508c-0.428,0.156-0.855,0.315-1.283,0.476
			c-3.895,1.438-7.894,2.916-11.876,4.339c-9.639,3.438-17.275,2.686-26.357-2.604c-6.274-3.656-11.582-4.776-20.27-4.278
			c-1.654,0.092-16.593,1.012-31.606,4.054c-1.097,0.225-2.143,0.448-3.144,0.673v-17.35c16.049-3.239,31.908-4.217,33.782-4.325
			c11.982-0.687,20.609,1.216,29.783,6.556c4.74,2.761,7.229,3.025,12.104,1.287c1.646-0.587,3.303-1.188,4.957-1.793
			c2.692-0.984,5.381-1.979,8.013-2.953c20.063-7.433,40.811-15.119,63.484-17.473c2.583-0.268,5.099-0.346,7.558-0.281
			c8.637,0.234,16.555,2.274,24.269,4.258c8.478,2.183,16.48,4.244,24.646,3.585c7.832-0.632,15.475-2.224,23.246-4.2
			c4.03-1.025,8.098-2.152,12.24-3.3C248,186.778,251.973,185.678,255.999,184.649z"/>
	</g>
	<g opacity="0.5">
		<path fill="#F8FCFF" d="M237.435,68.761c-8.857,1.446-17.525,3.85-26.703,6.396c-0.502,0.139-1.005,0.278-1.511,0.421
			c-11.9,3.293-24.194,6.597-37.154,7.643c-10.996,0.886-20.778-1.633-30.241-4.071c-8.844-2.275-17.196-4.427-25.841-3.531
			c-16.191,1.681-31.334,6.376-46.792,11.914c-4.153,1.483-8.325,3.032-12.545,4.594c-4.298,1.592-8.739,3.239-13.16,4.814
			c-7.313,2.611-13.476,2.808-19.991,0.438c-1.355-0.496-2.723-1.096-4.122-1.816c-0.74-0.377-1.487-0.784-2.244-1.226
			C11.649,91.142,6.906,89.886,0,89.95V72.978c9.917-0.058,17.587,1.979,25.675,6.692c4.74,2.76,7.229,3.025,12.104,1.283
			c4.325-1.542,8.719-3.171,12.97-4.743c20.062-7.436,40.811-15.122,63.484-17.475c11.676-1.212,21.919,1.426,31.827,3.976
			c8.478,2.183,16.48,4.244,24.646,3.589c11.894-0.958,23.356-4.139,35.487-7.504c9.215-2.553,18.741-5.194,28.513-6.791
			c3.294-0.536,6.451,0.9,8.268,3.439c0.739,1.029,1.256,2.241,1.474,3.575C245.203,63.644,242.063,68.007,237.435,68.761z"/>
	</g>
	<g opacity="0.7">
		<path fill="#F8FCFF" d="M255.999,173.34v27.098c-6.542-1.474-12.793-3.63-18.494-6.421c-1.911-0.937-3.809-1.901-5.663-2.849
			c-0.4-0.207-0.797-0.407-1.191-0.611c-8.857-4.539-17.224-8.827-25.742-9.934c-9.595-1.25-22.297,0.322-37.751,4.672
			c-2.486,0.699-4.981,1.446-7.477,2.23c-10.036,3.154-20.104,6.905-29.905,10.559c-4.424,1.65-8.998,3.354-13.533,4.995
			c-8.169,2.95-17.445,5.944-27.213,5.944c-2.445,0-4.92-0.187-7.415-0.607c-0.333-0.058-0.662-0.115-0.988-0.184
			c-10.664-2.122-18.151-8.783-24.198-14.168c-1.684-1.497-3.273-2.913-4.794-4.115c-3.494-2.764-6.122-3.486-14.783-2.322
			c-3.507,0.469-14.674,3.273-25.79,7.904C6.42,197.466,2.794,199.3,0,200.939v-29.121c0.903-0.38,1.827-0.76,2.767-1.141
			c11.887-4.78,24.395-8.128,30.608-8.963c10.216-1.372,22.15-2.017,34.472,7.728c2.122,1.674,4.074,3.415,5.965,5.097
			c4.495,4.003,8.379,7.459,12.162,8.097c6.224,1.057,14.301-1.585,21.387-4.146c2.583-0.934,5.205-1.897,7.809-2.861
			c1.84-0.687,3.67-1.369,5.477-2.041c5.908-2.203,11.91-4.438,17.998-6.583c7.031-2.482,14.182-4.839,21.434-6.879
			c19.136-5.382,34.899-7.157,48.202-5.429c3.256,0.424,6.403,1.103,9.452,1.966h0.004c9.137,2.583,17.363,6.797,24.839,10.63
			c2.221,1.138,4.315,2.214,6.424,3.242c0.119,0.059,0.234,0.116,0.354,0.17C251.419,171.696,253.649,172.579,255.999,173.34z"/>
	</g>
	<g>
		<path fill="#F8FCFF" d="M256,218.188v28.829c-1.881-1.032-3.721-1.983-5.531-2.812c-23.987-10.96-49.997-5.426-77.536,0.435
			c-22.178,4.72-45.112,9.598-68.732,6.339c-11.425-1.579-21.75-5.219-31.735-8.739c-11.044-3.892-21.475-7.568-32.166-7.962
			C24.888,233.71,13.371,236.223,0,241.234v-27.62c12.773-3.962,25.586-6.04,41.262-5.463c14.667,0.543,27.491,5.063,39.89,9.432
			c4.119,1.45,8.132,2.865,12.101,4.092c4.869,1.507,9.673,2.736,14.521,3.405c19.084,2.635,38.821-1.565,59.714-6.01
			c12.475-2.655,25.119-5.348,37.889-6.601c3.018-0.299,6.043-0.516,9.074-0.632C228.193,211.306,242.063,212.819,256,218.188z"/>
	</g>
	<g opacity="0.9">
		<path fill="#F8FCFF" d="M252.622,153.713c1.144,0.01,2.271,0.058,3.378,0.142v17.044c-1.151-0.129-2.319-0.2-3.5-0.21
			c-1.047-0.007-2.096-0.004-3.147,0.017c-17.055,0.262-34.567,3.527-51.54,6.699c-10.936,2.044-22.249,4.155-33.504,5.497
			l-1.734,0.206c-10.902,1.318-23.258,2.805-35.321-1.551c-4.302-1.556-8.284-3.633-12.083-5.928
			c-3.25-1.963-6.367-4.082-9.432-6.173c-2.189-1.491-4.258-2.899-6.322-4.214c-21.264-13.543-45.502-12.569-74.983-9.887
			C15.85,156.133,7.731,157.291,0,158.843v-17.289c7.31-1.351,14.925-2.383,22.897-3.106c10.882-0.988,22.887-2.081,35.229-1.674
			c0,0,0,0,0.003,0c7.374,0.244,14.871,1.021,22.317,2.683c9.567,2.132,19.05,5.71,28.088,11.469
			c2.285,1.453,4.556,3.001,6.756,4.499c6.05,4.121,11.768,8.013,17.729,10.165c1.823,0.658,3.697,1.117,5.623,1.416
			c6.797,1.072,14.182,0.18,21.898-0.751l1.756-0.21c10.702-1.273,21.729-3.334,32.397-5.327c7.584-1.416,15.271-2.853,23.036-4.054
			h0.003C229.222,154.887,240.881,153.628,252.622,153.713z"/>
	</g>
	<g opacity="0.9">
		<path fill="#F8FCFF" d="M0,110.861c0.058-0.003,0.112-0.003,0.167-0.003c2.849-0.041,5.714-0.095,8.59-0.153
			c0.713-0.014,1.43-0.027,2.146-0.044c10.494-0.197,21.115-0.353,31.552,0.18c14.273,0.723,28.21,2.74,41.027,7.704
			c2.72,1.052,5.361,2.257,8.033,3.551c1.619,0.781,3.249,1.595,4.917,2.427c7.884,3.935,16.46,8.22,26.523,10.107
			c3.331,0.622,6.824,0.984,10.508,0.984c2.031,0,4.115-0.108,6.265-0.346c12.82-1.409,24.479-4.854,35.382-9.51
			c8.732-3.725,16.979-8.224,24.948-13.062c7.381-4.481,14.524-9.258,21.6-13.988l2.017-1.348
			c12.009-8.02,22.453-14.26,32.326-19.248V49.275c-4.495,1.952-8.845,4.027-13.027,6.169
			c-12.956,6.617-24.348,13.856-33.752,20.134c-0.023,0.014-0.044,0.031-0.068,0.044l-2.023,1.354
			c-22.636,15.132-44.019,29.426-70.254,32.305c-10.199,1.121-18.392-2.967-28.761-8.148c-4.76-2.376-9.68-4.834-15.19-6.967
			c-7.819-3.029-15.748-5.154-23.732-6.634c-20.232-3.752-40.831-3.351-60.941-2.964C5.487,84.623,2.737,84.674,0,84.714v5.236
			v3.195v16.993V110.861z"/>
	</g>
	<g>
		<path fill="#F8FCFF" d="M256,3.963v20.792c-4.916,2.723-10.114,4.913-14.963,6.953c-2.051,0.862-3.989,1.681-5.809,2.496
			c-2.129,0.954-4.251,1.918-6.377,2.883c-12.901,5.856-26.245,11.917-40.606,15.587c-8.203,2.099-16.756,3.908-25.084,3.908
			c-3.6,0-7.153-0.336-10.624-1.138c-6.515-1.497-10.752-5.34-14.157-8.427c-1.661-1.504-3.226-2.923-4.821-3.857
			c-14.946-8.756-45.628-2.696-62.116,0.561c-3.738,0.74-7.599,1.952-11.69,3.238c-7.673,2.411-15.608,4.903-24.306,4.808
			c-9.938-0.108-17.078-4.468-23.376-8.315c-1.117-0.683-2.275-1.389-3.416-2.054C6.082,39.901,3.186,39.154,0,38.784V21.733
			c5.711,0.476,11.588,1.728,17.197,4.998c1.296,0.753,2.529,1.504,3.721,2.233c5.486,3.348,9.449,5.769,14.714,5.83
			c6,0.054,12.328-1.925,19.03-4.03c4.346-1.368,8.838-2.781,13.489-3.697c20.005-3.952,53.488-10.566,73.989,1.446
			c3.109,1.82,5.518,4.003,7.643,5.928c2.784,2.526,4.461,3.976,6.56,4.461c7.972,1.833,18.025-0.204,27.698-2.675
			c12.908-3.3,24.995-8.791,37.792-14.599c2.149-0.975,4.298-1.953,6.451-2.917c1.996-0.896,4.118-1.786,6.165-2.649
			c7.993-3.364,16.257-6.844,21.315-11.879C255.844,4.105,255.918,4.031,256,3.963z"/>
	</g>
</g>
</svg>
