<?xml version="1.0" encoding="utf-8"?>
<!-- Generator: Adobe Illustrator 16.0.0, SVG Export Plug-In . SVG Version: 6.00 Build 0)  -->
<!DOCTYPE svg PUBLIC "-//W3C//DTD SVG 1.1//EN" "http://www.w3.org/Graphics/SVG/1.1/DTD/svg11.dtd">
<svg version="1.1" id="Layer_1" xmlns="http://www.w3.org/2000/svg" xmlns:xlink="http://www.w3.org/1999/xlink" x="0px" y="0px"
	 width="256px" height="256px" viewBox="0 0 256 256" enable-background="new 0 0 256 256" xml:space="preserve">
<g>
	<g>
		<path fill-rule="evenodd" clip-rule="evenodd" fill="#F8FCFF" d="M93.54,219.087c-0.41-11.907,3.696-26.729,8.613-35.719"/>
		<path fill-rule="evenodd" clip-rule="evenodd" fill="#F8FCFF" d="M80.601,198.253c13.83-2.122,24.311,2.977,35.225,8.927"/>
		<path fill-rule="evenodd" clip-rule="evenodd" fill="#F8FCFF" d="M89.53,188.327c8.301,6.805,13.768,17.609,15.382,27.783"/>
		<path fill-rule="evenodd" clip-rule="evenodd" fill="#F8FCFF" d="M83.578,210.156c7.974-7.316,17.75-17.11,29.767-17.857"/>
	</g>
	<g>
		<path fill-rule="evenodd" clip-rule="evenodd" fill="#F8FCFF" d="M142.579,235.773c3.566-8.252,5.19-19.644,4.695-27.14"/>
		<path fill-rule="evenodd" clip-rule="evenodd" fill="#F8FCFF" d="M156.284,224.301c-7.852-4.843-15.671-3.812-23.994-2.285"/>
		<path fill-rule="evenodd" clip-rule="evenodd" fill="#F8FCFF" d="M153.6,215.175c-6.965,2.757-13.314,9.007-17.135,15.752"/>
		<path fill-rule="evenodd" clip-rule="evenodd" fill="#F8FCFF" d="M151.146,231.93c-2.824-7.069-6.065-16.308-13.189-19.752"/>
	</g>
	<g>
		<path fill-rule="evenodd" clip-rule="evenodd" fill="#F8FCFF" d="M35.534,164.868c-3.38,10.057-11.06,21.293-17.542,27.431
			L35.534,164.868z"/>
		<path fill-rule="evenodd" clip-rule="evenodd" fill="#F8FCFF" d="M38.801,185.878c-11.05-2.086-17.346-9.267-23.703-17.282
			L38.801,185.878z"/>
		<path fill-rule="evenodd" clip-rule="evenodd" fill="#F8FCFF" d="M29.015,191.676c-4.129-8-4.889-18.545-2.949-27.491
			L29.015,191.676z"/>
		<path fill-rule="evenodd" clip-rule="evenodd" fill="#F8FCFF" d="M40.253,175.105c-8.259,3.884-18.641,9.338-27.905,6.612
			L40.253,175.105z"/>
	</g>
	<g>
		<path fill-rule="evenodd" clip-rule="evenodd" fill="#F8FCFF" d="M231.29,185.294c7.716-4.487,15.479-13.002,19.224-19.707"/>
		<path fill-rule="evenodd" clip-rule="evenodd" fill="#F8FCFF" d="M249.666,185.19c-4.171-9.614-11.584-14.229-19.711-18.78"/>
		<path fill-rule="evenodd" clip-rule="evenodd" fill="#F8FCFF" d="M252.399,175.572c-7.628-2.553-16.658-1.71-23.755,1.323"/>
		<path fill-rule="evenodd" clip-rule="evenodd" fill="#F8FCFF" d="M240.928,188.052c1.458-7.976,3.775-18.081-0.54-26.001"/>
	</g>
	<g>
		<path fill-rule="evenodd" clip-rule="evenodd" fill="#F8FCFF" d="M174.837,179.337c5.538,6.92,6.845,18.353,5.81,27.235"/>
		<path fill-rule="evenodd" clip-rule="evenodd" fill="#F8FCFF" d="M164.304,194.225c10.138-4.075,16.986-6.849,26.513,0.364"/>
		<path fill-rule="evenodd" clip-rule="evenodd" fill="#F8FCFF" d="M167.572,184.419c9.498,1.375,14.501,8.044,17.434,16.707"/>
		<path fill-rule="evenodd" clip-rule="evenodd" fill="#F8FCFF" d="M182.31,182.109c0.519,9.578-5.027,15.8-12.947,20.375"/>
	</g>
	<g>
		<path fill-rule="evenodd" clip-rule="evenodd" fill="#F8FCFF" d="M150.547,160.712c-5.666,6.817-16.603,10.394-25.513,11.169"/>
		<path fill-rule="evenodd" clip-rule="evenodd" fill="#F8FCFF" d="M133.84,153.388c6.034,9.11,10.126,15.26,4.979,26.041"/>
		<path fill-rule="evenodd" clip-rule="evenodd" fill="#F8FCFF" d="M144.105,154.618c0.563,9.578-4.959,15.819-12.858,20.435"/>
		<path fill-rule="evenodd" clip-rule="evenodd" fill="#F8FCFF" d="M149.332,168.588c-9.278,2.438-16.487-1.746-22.565-8.583"/>
	</g>
	<g>
		<path fill-rule="evenodd" clip-rule="evenodd" fill="#F8FCFF" d="M221.408,223.135c4.807-6.193,6.705-17.198,6.604-25.953"/>
		<path fill-rule="evenodd" clip-rule="evenodd" fill="#F8FCFF" d="M214.476,207.595c7.476,4.971,12.53,8.344,20.422,2.262"/>
		<path fill-rule="evenodd" clip-rule="evenodd" fill="#F8FCFF" d="M216.222,217.465c7.41-0.4,11.783-6.397,14.721-14.549"/>
		<path fill-rule="evenodd" clip-rule="evenodd" fill="#F8FCFF" d="M227.374,221.173c1.154-9.278-2.63-15.884-8.363-21.126"/>
	</g>
	<g>
		<path fill-rule="evenodd" clip-rule="evenodd" fill="#F8FCFF" d="M67.98,173.958c5.744-4.515,8.015-12.534,7.897-18.916"/>
		<path fill-rule="evenodd" clip-rule="evenodd" fill="#F8FCFF" d="M59.689,162.63c8.938,3.624,14.98,6.082,24.418,1.65"/>
		<path fill-rule="evenodd" clip-rule="evenodd" fill="#F8FCFF" d="M61.775,169.826c8.863-0.295,14.091-4.667,17.6-10.604"/>
		<path fill-rule="evenodd" clip-rule="evenodd" fill="#F8FCFF" d="M75.113,172.527c1.378-6.765-3.145-11.575-10-15.396"/>
	</g>
	<g>
		<path fill-rule="evenodd" clip-rule="evenodd" fill="#F8FCFF" d="M41.802,229.8c7.358,2.725,16.604,0.563,23.032-2.861"/>
		<path fill-rule="evenodd" clip-rule="evenodd" fill="#F8FCFF" d="M49.314,216.585c0.627,9.782,1.043,16.396,10.101,22.429"/>
		<path fill-rule="evenodd" clip-rule="evenodd" fill="#F8FCFF" d="M43.006,222.172c4.573,7.676,11.538,10.021,19.266,10.029"/>
		<path fill-rule="evenodd" clip-rule="evenodd" fill="#F8FCFF" d="M46.695,235.357c7.538-2.302,10.247-8.799,10.824-16.838"/>
	</g>
	<path fill="#F8FCFF" d="M158.286,19.816c-16.155-5.095-38.542-4.168-49.52,9.917c-2.929,3.756-6.49,8.695-8.884,14.269
		c3.231,3.137,5.677,6.849,7.091,10.992c0.486,1.422-0.274,2.973-1.698,3.457c-1.422,0.487-2.973-0.272-3.458-1.694
		c-2.627-7.696-8.698-11.896-13.327-14.065c-7.968-3.728-17.646-4.231-25.254-1.311c-14.376,5.51-24.897,19.887-25.494,34.276
		c10.368-0.991,23.024-0.1,31.836,4.188c6.977,3.4,15.439,10.944,16.331,21.01c0.133,1.499-0.974,2.821-2.472,2.953
		c-1.512,0.156-2.822-0.971-2.954-2.474c-0.647-7.3-7.141-13.594-13.291-16.59c-9.262-4.512-24.064-4.727-33.896-3.013
		c-12.658,2.202-21.107,6.581-26.589,13.786c-9.45,12.415-8.85,31.123,1.397,43.511c17.735,21.438,50.681,17.453,79.749,13.937
		c9.808-1.187,19.072-2.306,27.323-2.417c12.478-0.18,25.337,0.975,37.774,2.082c22.602,2.01,45.974,4.096,67.854-1.646
		c15.743-4.132,27.257-14.648,32.424-29.621c5.73-16.606,2.46-35.327-8.747-50.079c-9.965-13.118-23.687-19.708-38.617-18.588
		c-16.354,1.243-31.92,11.955-40.621,27.955c-1.79,3.292-3.444,6.765-5.047,10.121c-0.647,1.354-2.273,1.93-3.632,1.287
		c-1.356-0.647-1.935-2.273-1.285-3.632c1.633-3.42,3.318-6.96,5.179-10.381c6.673-12.271,16.694-21.542,28.292-26.6
		C187.466,34.844,172.268,24.228,158.286,19.816z M181.009,104.275c3.901-3.38,8.652-6.125,13.248-8.779
		c2.262-1.307,4.396-2.542,6.441-3.844c1.158-0.743,2.703-0.4,3.444,0.759c0.743,1.163,0.401,2.705-0.76,3.448
		c-2.138,1.362-4.421,2.681-6.629,3.96c-2.745,1.582-5.548,3.205-8.13,4.942c1.069,0.228,2.128,0.46,3.175,0.691
		c4.024,0.883,7.828,1.722,11.784,2.15c1.37,0.152,2.361,1.382,2.214,2.753c-0.141,1.279-1.224,2.226-2.479,2.226
		c-0.09,0-0.183-0.004-0.274-0.016c-4.226-0.459-8.339-1.363-12.316-2.238c-2.775-0.611-5.645-1.243-8.485-1.702l-5.267-0.855
		L181.009,104.275z M157.499,129.729c0.739,1.243,1.207,1.966,2.162,2.382c1.606,0.703,2.09,0.424,4.403-1.163
		c0.735-0.508,1.54-1.055,2.465-1.599c5.303-3.125,6.701-3.76,10.523-1.166c0.569,0.383,1.272,0.862,2.216,1.414
		c0.763,0.447,1.408,0.839,1.97,1.179c2.518,1.53,2.514,1.53,6.117,0.244c0.806-0.288,1.603-0.835,2.445-1.415
		c2.174-1.49,6.218-4.275,10.558,0.972c0.959,1.158,0.795,2.873-0.364,3.832c-1.158,0.963-2.877,0.799-3.834-0.36
		c-1.16-1.402-1.16-1.402-3.274,0.048c-1.043,0.716-2.226,1.531-3.7,2.055c-5.536,1.978-6.443,1.918-10.778-0.72
		c-0.537-0.328-1.159-0.703-1.89-1.131c-1.071-0.627-1.874-1.171-2.521-1.61c-0.352-0.235-0.773-0.523-1.009-0.651
		c-0.626,0.2-2.25,1.155-3.696,2.006c-0.808,0.472-1.503,0.955-2.144,1.395c-2.456,1.687-5.239,3.597-9.666,1.666
		c-2.607-1.139-3.794-3.132-4.661-4.591c-0.972-1.626-1.167-2.002-2.739-1.97c-2.422,0.067-5.269,3.204-5.816,5.634
		c-0.283,1.267-1.406,2.126-2.652,2.126c-0.2,0-0.4-0.021-0.6-0.068c-1.469-0.327-2.39-1.786-2.063-3.252
		c1.047-4.655,5.706-9.738,10.979-9.886C154.68,124.978,156.37,127.831,157.499,129.729z M155.27,107.899l-5.876,1.195
		c-2.747,0.56-5.586,1.367-8.331,2.146c-3.458,0.983-7.034,1.998-10.623,2.589c-0.149,0.024-0.3,0.036-0.445,0.036
		c-1.309,0-2.465-0.947-2.684-2.282c-0.245-1.486,0.761-2.885,2.245-3.128c3.282-0.54,6.555-1.471,10.02-2.454
		c0.863-0.248,1.734-0.495,2.613-0.735c-2.949-1.742-6.134-3.337-9.255-4.903c-2.505-1.258-5.097-2.557-7.53-3.912
		c-1.313-0.735-1.786-2.394-1.054-3.704c0.733-1.319,2.395-1.786,3.705-1.055c2.33,1.299,4.755,2.514,7.32,3.8
		c5.229,2.625,10.633,5.334,15.131,8.767L155.27,107.899z"/>
</g>
</svg>
