<?xml version="1.0" encoding="utf-8"?>
<!-- Generator: Adobe Illustrator 16.0.0, SVG Export Plug-In . SVG Version: 6.00 Build 0)  -->
<!DOCTYPE svg PUBLIC "-//W3C//DTD SVG 1.1//EN" "http://www.w3.org/Graphics/SVG/1.1/DTD/svg11.dtd">
<svg version="1.1" id="Layer_1" xmlns="http://www.w3.org/2000/svg" xmlns:xlink="http://www.w3.org/1999/xlink" x="0px" y="0px"
	 width="256px" height="256px" viewBox="0 0 256 256" enable-background="new 0 0 256 256" xml:space="preserve">
<g>
	<path fill="#F8FCFF" d="M115.044,116.624c0.004,0,0.014,0,0.02-0.005v-0.005C115.058,116.618,115.048,116.618,115.044,116.624z
		 M245.787,146.615c-8.18-10.77-19.219-16.586-31.32-16.586c-0.966,0-1.937,0.037-2.916,0.109
		c-14.497,1.102-28.293,10.596-36.01,24.783c-1.599,2.939-3.057,6.002-4.472,8.967c-0.415,0.869-1.279,1.377-2.178,1.377
		c-0.353,0-0.705-0.078-1.043-0.238c-1.202-0.57-1.714-2.012-1.14-3.215c1.443-3.023,2.931-6.148,4.593-9.199
		c5.92-10.889,14.814-19.113,25.11-23.596c-1.145-14.717-14.637-24.114-27.037-28.025c-5.013-1.583-10.706-2.507-16.404-2.507
		c-2.337,0-4.675,0.156-6.963,0.483c-8.084,1.164-15.603,4.495-20.534,10.818c-2.588,3.321-5.751,7.676-7.866,12.607
		c2.874,2.781,5.022,6.105,6.278,9.784c0.43,1.26-0.242,2.631-1.502,3.064c-0.256,0.088-0.521,0.131-0.777,0.131
		c-0.126,0-0.252-0.01-0.373-0.027c-0.125-0.021-0.246-0.051-0.361-0.088c-0.059-0.02-0.116-0.037-0.174-0.064
		c-0.116-0.047-0.226-0.1-0.333-0.164c-0.473-0.277-0.854-0.727-1.047-1.293c-1.305-3.82-3.568-6.667-6.027-8.768
		c-0.072-0.063-0.149-0.126-0.222-0.189c-1.362-1.14-2.776-2.048-4.119-2.771c-0.493-0.271-0.98-0.518-1.448-0.734
		c-1.01-0.474-2.053-0.889-3.12-1.246c-1.58-0.526-3.202-0.921-4.844-1.188c-0.41-0.067-0.821-0.126-1.232-0.173
		c-0.41-0.054-0.821-0.092-1.23-0.126c-0.822-0.067-1.643-0.1-2.463-0.1c-2.329,0-4.627,0.27-6.795,0.82
		c-0.348,0.087-0.69,0.179-1.034,0.28c-0.569,0.174-1.125,0.363-1.669,0.57c-0.933,0.357-1.846,0.754-2.739,1.198
		c-6.862,3.36-12.521,9.024-16.027,15.603c-2.279,4.268-3.646,8.922-3.838,13.578c2.202-0.213,4.52-0.324,6.876-0.324
		c0.468,0,0.938,0.006,1.41,0.016c0.469,0.01,0.942,0.023,1.416,0.037c0.946,0.039,1.892,0.098,2.838,0.176
		c0.469,0.037,0.941,0.082,1.41,0.129c0.474,0.049,0.942,0.102,1.41,0.16c0.464,0.057,0.933,0.125,1.391,0.193
		c0.464,0.072,0.922,0.145,1.381,0.227c1.604,0.285,3.164,0.637,4.666,1.068c0.428,0.125,0.853,0.25,1.269,0.385
		c1.463,0.475,2.858,1.023,4.158,1.656c6.186,3.01,13.685,9.691,14.477,18.621c0.115,1.328-0.865,2.5-2.193,2.617
		c-0.077,0.004-0.154,0.01-0.227,0.01c-1.082,0-2.014-0.73-2.309-1.748c-0.038-0.146-0.066-0.299-0.082-0.455
		c-0.574-6.475-6.33-12.053-11.781-14.703c-0.329-0.16-0.662-0.314-1.005-0.459c-2.389-1.033-5.133-1.771-8.03-2.27
		c-0.411-0.072-0.826-0.139-1.246-0.199c0,0,0,0-0.005,0c-0.416-0.063-0.841-0.119-1.261-0.168c-0.424-0.053-0.85-0.102-1.276-0.145
		h-0.003c-0.425-0.039-0.855-0.078-1.28-0.111c-0.429-0.035-0.859-0.063-1.29-0.086c-1.289-0.078-2.583-0.111-3.858-0.111
		c-0.482,0-0.97,0.004-1.448,0.014s-0.957,0.023-1.429,0.043c-0.324,0.016-0.643,0.029-0.961,0.049
		c-0.305,0.014-0.61,0.033-0.908,0.057c-0.31,0.02-0.613,0.045-0.923,0.068c-0.454,0.039-0.903,0.078-1.342,0.127
		c-1.328,0.139-2.598,0.313-3.785,0.521c-5.447,0.947-10.006,2.346-13.82,4.271c-4.047,2.035-7.248,4.66-9.75,7.951
		c-8.378,11.004-7.842,27.58,1.241,38.566c9.638,11.652,24.338,14.83,40.216,14.83c1.66,0,3.332-0.033,5.011-0.102
		c2.096-0.078,4.206-0.201,6.322-0.357c2.496-0.184,4.993-0.414,7.484-0.672h0.004c0.782-0.082,1.564-0.164,2.348-0.25
		c3.129-0.344,6.239-0.719,9.305-1.092c0.236-0.027,0.479-0.059,0.715-0.086c1.787-0.219,3.549-0.432,5.287-0.627
		c3.309-0.389,6.529-0.73,9.639-0.986c2.076-0.174,4.109-0.305,6.08-0.377c0.844-0.033,1.681-0.059,2.506-0.068
		c0.739-0.01,1.478-0.014,2.217-0.014c0.787,0,1.579,0.004,2.371,0.02c4.245,0.053,8.528,0.256,12.806,0.541
		c5.399,0.348,10.788,0.83,16.096,1.299c10.295,0.918,20.769,1.85,31.156,1.85c9.821,0,19.566-0.836,28.992-3.307
		c10.497-2.76,18.882-8.717,24.338-17.154c0-0.004,0.005-0.014,0.009-0.018c0.759-1.17,1.459-2.393,2.101-3.656
		c0.879-1.723,1.646-3.541,2.3-5.434C258.623,176.289,255.726,159.697,245.787,146.615z M113.976,155.24
		c8.248-4.326,14.831,5.064,17.346,9.465l-0.207,0.033c-2.043-2.162-4.418-5.008-8.437-4.572c-3.419,0.371-7.47,4.895-10.995,3.539
		C107.705,162.174,111.123,156.736,113.976,155.24z M130.815,201.057c0.015,2.477,3.655,7.307,1.092,9.514
		c-3.15,2.703-6.322-0.793-7.49-3.26c-2.521-5.313,1.309-13.334,8.553-14.578c0.541-0.092,1.101-0.15,1.675-0.166
		C131.487,192.814,130.801,199.518,130.815,201.057z M124.572,181.969c-2.637,1.805-5.046,8.328-8.9,7.928
		c-4.326-0.449-3.975-5.943-2.322-8.855c4.037-7.123,16.717-7.953,22.257-2.633l1.607,0.643
		C132.868,179.555,128.274,179.428,124.572,181.969z M144.689,184.334c-0.136,0.02-0.266,0.029-0.396,0.029
		c-1.158,0-2.183-0.836-2.381-2.02c-0.212-1.318,0.677-2.559,1.994-2.775c2.903-0.479,5.801-1.299,8.866-2.174
		c0.768-0.217,1.546-0.439,2.328-0.652c-2.612-1.539-5.438-2.959-8.2-4.346c-2.221-1.115-4.52-2.264-6.678-3.467
		c-1.164-0.646-1.579-2.119-0.933-3.283c0.647-1.164,2.12-1.584,3.284-0.938c2.066,1.154,4.216,2.232,6.49,3.371
		c4.636,2.328,9.426,4.727,13.414,7.775l4.226,3.225l-5.215,1.057c-2.438,0.498-4.959,1.213-7.398,1.904
		C151.029,182.91,147.866,183.809,144.689,184.334z M193.674,208.078c-9.262,5.037-25.246,6.045-34.098-0.27
		c-6.084-4.348-8.334-11.48-0.159-14.068c5.708-1.805,13.459-0.02,19.297,0.266c4.703,0.227,18.997-3.023,22.401,1.512
		C204.621,200.191,197.223,206.146,193.674,208.078z M207.088,169.404c-1.97,1.094-4.07,2.148-6.099,3.166
		c-2.525,1.266-5.104,2.559-7.489,3.965c0.715,0.197,1.42,0.4,2.125,0.6c2.801,0.795,5.446,1.549,8.098,1.984
		c1.202,0.197,2.019,1.334,1.82,2.535c-0.179,1.08-1.115,1.846-2.173,1.848c-0.12,0-0.241-0.008-0.362-0.033
		c-2.902-0.477-5.794-1.299-8.59-2.09c-2.227-0.633-4.53-1.283-6.756-1.738l-4.762-0.965l3.858-2.947
		c3.641-2.781,8.021-4.979,12.251-7.102c2.081-1.043,4.047-2.029,5.93-3.078c1.067-0.592,2.408-0.211,2.998,0.85
		C208.532,167.467,208.15,168.809,207.088,169.404z M208.484,176.082c-0.232,0-0.464-0.006-0.691-0.01
		c0.213-0.771,1.227-1.377,1.85-1.811c3.83-2.641,9.696-1.947,13.343,0.518c2.109,1.428,5.056,5.43,3.863,8.154
		c-0.99,2.246-5.312,2.414-6.736,0.506c-1.444-1.936-0.812-4.529-2.729-6.176C215.056,175.271,211.271,176.072,208.484,176.082z
		 M224.192,206.498c-2.429,1.361-6.828,1.498-7.856-1.738c-1.115-3.51,2.347-4.297,4.504-5.717c2.889-1.893,4.55-3.729,3.521-7.609
		C228.466,195.416,230.146,203.162,224.192,206.498z M224.366,166.572c0.227-0.844,0.517-1.596,0.923-2.289
		c0.342-0.588,0.763-1.129,1.299-1.646c2.699-2.631,6.282-3.871,9.941-4.471c3.14-0.518,5.873,0.682,7.892,3.063
		c1.675,1.971,3.027,5.615-0.184,7.006c-4.273,1.859-5.211-1.896-8.547-3.486C232.349,163.164,227.09,164.092,224.366,166.572z
		 M246.005,194.15c-1.015,2.613-3.771,6.316-6.511,3.449c-4.422-4.65,4.887-14.457-2.225-20.5c0.463,0.227,0.922,0.475,1.371,0.74
		C244.218,181.162,248.598,187.492,246.005,194.15z"/>
	<path fill="#F8FCFF" d="M144.24,70.497c-2.178,6.722-7.77,9.755-7.847,15.454c1.54,1.593,3.008,3.288,4.394,5.075
		c-9.3,2.091-16.94,6.707-22.165,13.415c-0.16,0.208-0.318,0.411-0.479,0.613c-0.15-1.569-0.405-3.129-0.846-4.683
		c-0.666-2.357-4.441-11.324-10.796-12.122c-1.43-0.179-5.028-0.115-7.583,4.303c-2.317,4.013-1.641,9.552,2.072,16.819
		c0.169,0.328,0.343,0.666,0.532,1.005c-2.29-0.411-4.622-0.614-6.935-0.614c-4.429,0-8.784,0.774-12.588,2.231
		c-0.217,0.082-0.435,0.169-0.653,0.256c-0.058-0.179-0.115-0.362-0.178-0.546c-0.354-1.076-0.777-2.139-1.29-3.171
		c-1.008-2.038-2.477-4.091-4.215-5.708l-15.458,7.5c-0.632,5.529,1.145,10.812,3.1,15.443c-0.624,0.783-1.227,1.583-1.805,2.409
		c-0.294,0.42-0.604,0.875-0.957,1.426c-3.689,5.707-5.925,11.975-6.558,18.311c-3.993,0.84-8.986,2.244-13.864,4.838
		c-0.072,0.039-0.145,0.076-0.217,0.115c-4.906-8.469-7.886-17.881-7.766-28.248c-2.114,0.015-4.249-0.146-6.185-0.502
		c-6.967-1.28-6.963-5.785-11.396-10.044C10.401,110.08,4.438,110.577,0,107.796c1.662-3.091,3.742-6.302,6.905-8.045
		c6.736-3.708,12.396,3.728,18.312-0.613c2.68-1.971,7.731-7.436,12.043-7.079c-2.309-1.627-4.756-3.23-6.327-4.481
		c-6.818-5.447-4.79-9.813-4.679-17.177c0.107-7.117-6.138-9.189-12.077-11.13c3.414-2.164,7.697-2.646,11.647-2.892
		c8.576-0.532,17.162,0.149,24.134,5.944c2.854,2.37,3.782,6.21,6.862,8.291c1.023,0.69,2.207,1.115,3.438,1.462
		c3.902,0.406,7.886-0.362,11.449-2.188c-0.066-1.777,0-3.543,0.354-5.234c0.699-3.337,2.621-5.568,3.873-8.475
		c1.365-3.173,1.308-5.843,2.191-9.113c1.38-5.075,8.417-6.885,7.592-12.569c1.859,1.588,3.853,4.07,4.572,6.731
		c1.806,6.703-2.868,9.614,1.917,15.844c3.882,5.051,10.72,10.353,17.664,12.468c8.957-2.607,12.472-11.213,12.227-20.788
		c-0.179-7.041-0.647-13.097,8.103-13.116c-3.066,4.042,2.989,7.808,5.606,9.909C143.598,51.8,147.509,60.396,144.24,70.497z"/>
</g>
</svg>
