<?xml version="1.0" encoding="utf-8"?>
<!-- Generator: Adobe Illustrator 16.0.0, SVG Export Plug-In . SVG Version: 6.00 Build 0)  -->
<!DOCTYPE svg PUBLIC "-//W3C//DTD SVG 1.1//EN" "http://www.w3.org/Graphics/SVG/1.1/DTD/svg11.dtd">
<svg version="1.1" id="Layer_1" xmlns="http://www.w3.org/2000/svg" xmlns:xlink="http://www.w3.org/1999/xlink" x="0px" y="0px"
	 width="256px" height="256px" viewBox="0 0 256 256" enable-background="new 0 0 256 256" xml:space="preserve">
<g>
	<g>
		<path fill-rule="evenodd" clip-rule="evenodd" fill="#F8FCFF" d="M136.337,231.78c-6.523-11.33-9.98-27.901-9.627-39.249"/>
		<path fill-rule="evenodd" clip-rule="evenodd" fill="#F8FCFF" d="M112.578,218.482c12.882-9.443,26.082-10.101,40.161-10.159"/>
		<path fill-rule="evenodd" clip-rule="evenodd" fill="#F8FCFF" d="M116.506,204.089c11.876,2.164,22.939,9.722,29.789,18.729"/>
		<path fill-rule="evenodd" clip-rule="evenodd" fill="#F8FCFF" d="M121.693,228.441c4.301-11.358,9.149-26.079,20.904-33.228"/>
	</g>
	<g>
		<path fill-rule="evenodd" clip-rule="evenodd" fill="#F8FCFF" d="M78.407,182.89c3.27-7.556,4.757-17.989,4.304-24.856"/>
		<path fill-rule="evenodd" clip-rule="evenodd" fill="#F8FCFF" d="M90.962,172.383c-7.192-4.435-14.353-3.491-21.975-2.094"/>
		<path fill-rule="evenodd" clip-rule="evenodd" fill="#F8FCFF" d="M88.501,164.025c-6.379,2.525-12.192,8.25-15.692,14.425"/>
		<path fill-rule="evenodd" clip-rule="evenodd" fill="#F8FCFF" d="M86.258,179.368c-2.591-6.472-5.557-14.935-12.084-18.087"/>
	</g>
	<g>
		<path fill-rule="evenodd" clip-rule="evenodd" fill="#F8FCFF" d="M35.48,160.761c-3.098,9.212-10.131,19.502-16.067,25.123"/>
		<path fill-rule="evenodd" clip-rule="evenodd" fill="#F8FCFF" d="M38.472,180.004c-10.121-1.911-15.888-8.486-21.711-15.827"/>
		<path fill-rule="evenodd" clip-rule="evenodd" fill="#F8FCFF" d="M29.509,185.313c-3.782-7.325-4.478-16.984-2.701-25.179"/>
		<path fill-rule="evenodd" clip-rule="evenodd" fill="#F8FCFF" d="M39.802,170.136c-7.566,3.561-17.073,8.554-25.558,6.059"/>
	</g>
	<path fill="#F8FCFE" d="M226.88,73.952c-9.13-12.02-21.68-18.06-35.37-17.02c-14.979,1.14-29.24,10.95-37.21,25.6
		c-1.64,3.03-3.16,6.2-4.62,9.27c-0.59,1.24-2.08,1.77-3.319,1.18c-1.25-0.6-1.78-2.09-1.181-3.33c1.49-3.12,3.03-6.35,4.74-9.5
		c6.12-11.25,15.3-19.74,25.93-24.38c-1.17-15.2-15.109-24.92-27.92-28.96c-14.8-4.67-35.3-3.81-45.35,9.09
		c-2.68,3.43-5.93,7.94-8.13,13.03c2.97,2.88,5.19,6.3,6.48,10.1c0.45,1.31-0.25,2.72-1.55,3.17c-1.31,0.44-2.72-0.25-3.17-1.56
		c-2.4-7.04-7.96-10.89-12.2-12.87c-7.3-3.42-16.16-3.88-23.14-1.21c-13.16,5.05-22.8,18.22-23.35,31.4
		c9.5-0.91,21.1-0.09,29.17,3.84c6.38,3.11,14.13,10.01,14.95,19.24c0.12,1.37-0.89,2.58-2.26,2.7c-1.37,0.13-2.59-0.89-2.71-2.26
		c-0.59-6.69-6.54-12.46-12.17-15.2c-8.48-4.13-22.04-4.33-31.05-2.76c-11.59,2.02-19.33,6.03-24.35,12.63
		c-8.66,11.37-8.11,28.5,1.28,39.851c16.24,19.64,46.42,15.989,73.04,12.77c8.98-1.09,17.47-2.12,25.03-2.22
		c11.43-0.16,23.21,0.9,34.6,1.91c20.7,1.84,42.11,3.75,62.15-1.51c14.41-3.78,24.96-13.421,29.689-27.131
		C240.14,104.612,237.15,87.462,226.88,73.952z M91.63,87.202c7.22-5.08,19.95-0.04,22.89,7.69l1.27,1.37
		c-4.46-1.52-8.88-3.75-13.65-2.99c-3.4,0.55-8.75,5.79-12.33,3.63C85.81,94.472,88.68,89.282,91.63,87.202z M68.97,119.162
		c-0.34-6.73,10.34-11.83,17.35-9.64l5.15,2.43c-4.38-0.65-7.53,0.92-10.24,3.22C78.91,117.142,69.55,130.713,68.97,119.162z
		 M86.98,129.263c0.24,3.17,5.04,6.92,3.38,10.18c-1.88,3.69-7.71,0.521-9.23-2.13c-4.37-7.63,6.29-13.73,11.26-16.061l0.02,0.2
		C89.94,123.342,86.69,125.542,86.98,129.263z M107.55,116.082c-2.13,2.46-3.34,9.82-7.33,10.18c-4.89,0.45-4.44-5.25-3.27-8.52
		c2.8-7.76,12.75-11.56,20.26-9.64l0.58,1.44C114.12,111.442,110.29,112.892,107.55,116.082z M121.86,144.522
		c-2.87,3.08-7.73,0.601-9.73-2.22c-4.7-6.61,0.62-14.041,6.98-16.661c-2.89,3.661-1.44,6.531,0.73,10.081
		C121.51,138.463,124.98,141.183,121.86,144.522z M133.81,105.652c-3.279,1.52-5.27,4.24-5.31,7.27c-0.02,1.37-1.13,2.46-2.49,2.46
		h-0.04c-1.38-0.02-2.48-1.15-2.46-2.53c0.07-5,3.14-9.39,8.21-11.73c5.34-2.48,11.42-1.91,15.49,1.44
		c2.03,1.67,3.36,3.96,4.44,5.98c0.649,1.22,0.199,2.73-1.011,3.38c-1.22,0.66-2.729,0.2-3.38-1.01c-0.899-1.68-1.89-3.4-3.22-4.5
		C141.44,104.272,137.42,103.972,133.81,105.652z M182.69,136.853c-0.99,2.33-3.33,3.72-6.28,3.72c-1.11,0-2.29-0.189-3.53-0.56
		c-6.66-2.01-9.93-2.74-16.14-0.57c-1.66,0.58-4.88,1.55-7.76,1.55c-2.65,0-4.601-0.8-5.79-2.38c-1.221-1.62-1.44-3.819-0.65-6.54
		l0.12-0.449l0.28-0.37c3.09-4.091,8.22-9.561,17.01-9.851c0.46-0.01,0.93-0.02,1.41-0.02c4.71,0,13.38,0.79,18.52,6.06
		C182.84,130.492,183.89,134.003,182.69,136.853z M184.34,113.532c-1.37,0.17-2.609-0.82-2.77-2.18c-0.37-3.13-2.011-6.01-4.29-7.54
		c-1.721-1.15-3.63-1.43-5.69-0.85c-2.83,0.8-4.29,3.19-5.21,8.52c-0.21,1.21-1.26,2.07-2.45,2.07c-0.14,0-0.29-0.01-0.43-0.04
		c-1.36-0.23-2.27-1.52-2.04-2.88c0.55-3.14,1.82-10.51,8.771-12.47c3.479-0.99,6.88-0.46,9.819,1.5c3.521,2.35,5.94,6.5,6.47,11.1
		C186.68,112.132,185.71,113.372,184.34,113.532z M193.14,130.953c-3.04-1.91-0.96-4.681-0.239-7.091c0.93-3.14,1.46-5.61-1.48-7.81
		c5.35,0.71,10.9,5.28,8.66,11.25C199.12,129.853,195.93,132.713,193.14,130.953z M205.02,142.303c-2.01,0.84-6.869,0-6.51-2.99
		c0.32-2.66,4.78-2.63,6.23-4.35c1.7-2.021,0.609-4.78-0.13-7.01l0.1-0.101C206.79,131.482,210.82,139.893,205.02,142.303z
		 M209.92,122.982c-3-0.93-2.74-6.79-3.97-9.03c-1.59-2.9-4.29-4.64-6.811-6.7l0.69-1c6.08-0.26,13.11,4.29,14,10.71
		C214.2,119.662,213.6,124.122,209.92,122.982z M215.08,98.722c-2.83,1.65-6.97-2.54-9.63-3.02c-3.74-0.67-7.24,1.03-10.771,2.16
		l1.021-1.06c2.41-6.03,12.49-9.81,18.09-5.73C216.08,92.742,218.26,96.862,215.08,98.722z M223.49,133.492
		c-1.38,1.99-4.3,2.391-6.03,0.591c-1.94-2-0.76-4.351,0.31-6.411c1.24-2.37,2.601-4.43,1.881-7.19l0.05-0.82
		C221.01,123.232,226.14,129.703,223.49,133.492z M231.08,117.202c-4.75,7.74-6.09-5.14-6.95-7.37c-1-2.61-2.59-4.88-5.85-6.07
		l4.47,0.26C228.4,105.142,233.85,112.682,231.08,117.202z"/>
	<g>
		<path fill-rule="evenodd" clip-rule="evenodd" fill="#F8FCFF" d="M206.286,158.388c6.916-0.622,15.093-4.665,19.824-8.835"/>
		<path fill-rule="evenodd" clip-rule="evenodd" fill="#F8FCFF" d="M219.537,165.952c-0.074-9.953-4.002-16.984-8.465-24.257"/>
		<path fill-rule="evenodd" clip-rule="evenodd" fill="#F8FCFF" d="M224.43,158.869c-4.71-5.355-11.463-8.397-17.492-8.762"/>
		<path fill-rule="evenodd" clip-rule="evenodd" fill="#F8FCFF" d="M212.38,164.757c3.478-6.207,8.217-13.877,7.521-22.444"/>
	</g>
	<g>
		<path fill-rule="evenodd" clip-rule="evenodd" fill="#F8FCFF" d="M10.54,195.015c-2.983,8.88,0.344,20.546,5.085,28.833"/>
		<path fill-rule="evenodd" clip-rule="evenodd" fill="#F8FCFF" d="M27.741,205.542C15.402,205.428,7.057,205.336,0,216.021"/>
		<path fill-rule="evenodd" clip-rule="evenodd" fill="#F8FCFF" d="M20.271,197.21c-9.425,4.969-11.95,13.393-11.471,22.979"/>
		<path fill-rule="evenodd" clip-rule="evenodd" fill="#F8FCFF" d="M3.818,200.576c3.391,9.56,11.786,13.518,22,14.97"/>
	</g>
	<g>
		<path fill-rule="evenodd" clip-rule="evenodd" fill="#F8FCFF" d="M140.842,155.863c-5.188,6.246-15.203,9.521-23.365,10.23"/>
		<path fill-rule="evenodd" clip-rule="evenodd" fill="#F8FCFF" d="M125.544,149.158c5.526,8.341,9.273,13.976,4.558,23.852"/>
		<path fill-rule="evenodd" clip-rule="evenodd" fill="#F8FCFF" d="M134.943,150.283c0.517,8.772-4.542,14.491-11.777,18.718"/>
		<path fill-rule="evenodd" clip-rule="evenodd" fill="#F8FCFF" d="M139.733,163.078c-8.5,2.232-15.101-1.602-20.669-7.861"/>
	</g>
	<g>
		<path fill-rule="evenodd" clip-rule="evenodd" fill="#F8FCFF" d="M201.349,221.158c5.516-7.11,7.696-19.74,7.583-29.79"/>
		<path fill-rule="evenodd" clip-rule="evenodd" fill="#F8FCFF" d="M193.389,203.321c8.583,5.707,14.383,9.578,23.443,2.596"/>
		<path fill-rule="evenodd" clip-rule="evenodd" fill="#F8FCFF" d="M195.392,214.653c8.509-0.462,13.529-7.347,16.897-16.702"/>
		<path fill-rule="evenodd" clip-rule="evenodd" fill="#F8FCFF" d="M208.197,218.907c1.322-10.651-3.02-18.232-9.601-24.249"/>
	</g>
	<g>
		<path fill-rule="evenodd" clip-rule="evenodd" fill="#F8FCFF" d="M171.552,184.805c5.261-4.135,7.341-11.479,7.232-17.325"/>
		<path fill-rule="evenodd" clip-rule="evenodd" fill="#F8FCFF" d="M163.958,174.432c8.188,3.319,13.72,5.571,22.364,1.51"/>
		<path fill-rule="evenodd" clip-rule="evenodd" fill="#F8FCFF" d="M165.868,181.021c8.118-0.268,12.907-4.272,16.12-9.712"/>
		<path fill-rule="evenodd" clip-rule="evenodd" fill="#F8FCFF" d="M178.085,183.496c1.262-6.194-2.881-10.604-9.158-14.102"/>
	</g>
	<g>
		<path fill-rule="evenodd" clip-rule="evenodd" fill="#F8FCFF" d="M65.759,208.095c6.741,2.497,15.209,0.516,21.096-2.62"/>
		<path fill-rule="evenodd" clip-rule="evenodd" fill="#F8FCFF" d="M72.64,195.992c0.576,8.96,0.955,15.017,9.252,20.541"/>
		<path fill-rule="evenodd" clip-rule="evenodd" fill="#F8FCFF" d="M66.864,201.108c4.188,7.03,10.566,9.178,17.646,9.188"/>
		<path fill-rule="evenodd" clip-rule="evenodd" fill="#F8FCFF" d="M70.241,213.185c6.904-2.106,9.387-8.057,9.915-15.422"/>
	</g>
	<g>
		<path fill-rule="evenodd" clip-rule="evenodd" fill="#F8FCFF" d="M240.438,169.358c4.588,7.922,7.452,19.32,7.699,27.035"/>
		<path fill-rule="evenodd" clip-rule="evenodd" fill="#F8FCFF" d="M256,179.169c-7.752,6.024-16.07,6.053-24.974,5.647"/>
		<path fill-rule="evenodd" clip-rule="evenodd" fill="#F8FCFF" d="M254.109,188.847c-7.593-1.852-14.896-7.351-19.605-13.698"/>
		<path fill-rule="evenodd" clip-rule="evenodd" fill="#F8FCFF" d="M249.828,172.099c-2.245,7.595-4.71,17.47-11.841,21.963"/>
	</g>
	<path fill-rule="evenodd" clip-rule="evenodd" fill="#CFE5E8" d="M119.93,125.332c-0.28,0.09-0.55,0.2-0.82,0.31
		c0.07-0.1,0.16-0.2,0.24-0.3L119.93,125.332z"/>
	<path fill-rule="evenodd" clip-rule="evenodd" fill="#CFE5E8" d="M191.42,116.052c-0.229-0.03-0.45-0.05-0.68-0.07l0.439-0.1
		C191.26,115.942,191.35,116.002,191.42,116.052z"/>
</g>
</svg>
