<?xml version="1.0" encoding="utf-8"?>
<!-- Generator: Adobe Illustrator 16.0.0, SVG Export Plug-In . SVG Version: 6.00 Build 0)  -->
<!DOCTYPE svg PUBLIC "-//W3C//DTD SVG 1.1//EN" "http://www.w3.org/Graphics/SVG/1.1/DTD/svg11.dtd">
<svg version="1.1" id="Layer_1" xmlns="http://www.w3.org/2000/svg" xmlns:xlink="http://www.w3.org/1999/xlink" x="0px" y="0px"
	 width="256px" height="256px" viewBox="0 0 256 256" enable-background="new 0 0 256 256" xml:space="preserve">
<g>
	<path fill-rule="evenodd" clip-rule="evenodd" fill="#F8FCFF" d="M95.449,75.216c0.406-1.047-0.648-1.488-0.25-2.441
		c0.883-2.133,3.172-2.93,5.406-1.469c3.125,2.039,5.422,4.895,6.68,8.379c1.688,4.691,1.789,9.547,0.563,14.379
		c-0.688,2.723-2.281,4.856-4.648,6.422c-3.578,2.371-6.273,1.637-7.953-2.301c-1.461-3.407-1.617-7.04-1.719-10.715
		C93.676,83.33,93.895,79.138,95.449,75.216z"/>
	<path fill-rule="evenodd" clip-rule="evenodd" fill="#F8FCFF" d="M91.77,64.357c-0.539-0.449-1.148-0.824-1.797-1.219l-0.188-0.113
		c-0.922-0.566-1.985-0.863-3.102-1.172c-0.594-0.16-1.195-0.333-1.797-0.547c-1.734-0.105-3.469-0.328-5.148-0.547
		c-1.336-0.172-2.727-0.348-4.086-0.465c-1.797-0.148-3.625-0.238-5.414-0.328c-3.57-0.176-7.266-0.363-10.891-1.031l-0.094-0.016
		l-0.086-0.035c-0.242-0.105-0.484-0.203-0.734-0.297c-1.813-0.715-3.781-1.309-6.391-1.926l-0.375-0.082l-0.18-0.168
		c-0.68-0.645-1.359-1.293-2.031-1.938c-4.383-4.156-8.906-8.449-13.656-12.328c-0.391-0.238-0.781-0.477-1.172-0.723
		c-0.875-0.547-1.773-1.113-2.688-1.598c-1.469-0.773-3.055-1.527-4.742-1.527c-0.414,0-0.828,0.043-1.234,0.133
		c-1.891,0.414-3.211,1.398-3.703,2.762c-0.484,1.352-0.102,2.922,1.078,4.418c2.359,2.992,5.078,5.523,7.438,7.598
		c9.953,7.914,18.453,12.266,27.563,14.114c7.359,1.492,15.195,2.316,23.953,2.52c2.523-0.059,5.492-0.223,8.422-1.004l0.156-0.043
		c1.234-0.328,2.008-0.578,2.203-1.469C93.23,66.65,93.262,65.607,91.77,64.357z M255.975,173.54
		c-0.898,0.359-1.688,0.648-2.453,0.988c-11.891,5.277-24.031,9.801-36.782,12.598c-13.578,2.98-27.297,3.813-40.984,1.441
		c-20.578-3.574-38.54-13.02-54.728-25.996c-3.672-2.938-7.102-6.181-10.648-9.282c-0.93,0.516-0.672,1.477-0.82,2.266
		c-2.141,12.021-13.766,21.056-26.719,17.567c-8.844-2.383-15.219-8.363-19.367-16.556c-1.125-2.23-1.578-4.695-1.398-7.215
		c0.133-1.953,1.359-3.133,3.055-3.125c1.688,0,2.484,0.879,2.648,3.078c0.273,3.777,1.75,7.012,4.305,9.789
		c2.367,2.575,4.984,4.833,8.039,6.595c5.258,3.035,10.563,3.484,15.797,0.148c4.828-3.078,8.078-7.333,7.813-13.329
		c-0.094-2.227-0.141-4.254,1.008-6.195c-2.219-3.707-4.711-7.285-6.594-11.156c-9.539-19.553-16.477-39.776-15.946-61.815
		c-8.977-0.211-17-1.059-24.555-2.59c-9.68-1.965-18.641-6.531-29.04-14.805l-0.07-0.059l-0.07-0.055
		c-0.125-0.113-0.258-0.23-0.391-0.352c-0.055,0.066-0.102,0.133-0.156,0.195c-4.445,5.484-8.383,11.348-11.469,17.68
		c-8.149,16.707-14.079,34.106-16,52.723c-1.07,10.311-0.367,20.35,3.656,30.041c2.227,5.349,4.055,10.856,5.641,16.435
		c7.454,26.172,23.375,45.535,47.267,58.34c22.031,11.81,45.969,15.872,70.602,16.786c9.664,0.359,19.313-0.297,28.938-1.234
		c9.844-0.961,19.609-2.391,29.211-4.773c15.656-3.883,29.227-11.255,39.438-24.106c10.734-13.52,20.539-27.695,30.039-42.09
		C255.6,174.935,256.123,174.442,255.975,173.54z M39.612,149.355c-1.664,2.254-3.625,3.199-7.344,3.168
		c-2.758-0.18-5.93-1.297-8.578-3.602c-3.07-2.672-3.773-7.137-1.883-11.047c2.266-4.656,6.82-7.135,11.555-6.279
		c0.734,0.129,1.227,0.367,2.156-0.25c1.43-0.957,2.938,0.227,3.938,1.514C42.487,136.758,42.542,145.383,39.612,149.355z
		 M47.526,95.869c-0.734,3.137-2.813,5.313-5.305,7.083c-2.359,1.664-4.43,1.063-5.711-1.555c-1.82-3.743-1.664-7.817-1.844-11.547
		c0.211-5.555,0.594-10.789,2.32-15.828c0.102-0.293,0.336-0.703,0.227-0.867c-0.633-0.957-0.836-1.633,0.469-2.297
		c1.406-0.719,2.742-1.059,4.18-0.289c1.344,0.719,2.289,1.879,2.938,3.207C48.269,80.814,49.315,88.169,47.526,95.869z"/>
	<path fill-rule="evenodd" clip-rule="evenodd" fill="#F8FCFF" d="M107.848,94.064c-0.688,2.723-2.281,4.856-4.648,6.422
		c-3.578,2.371-6.273,1.637-7.953-2.301c-1.461-3.407-1.617-7.04-1.719-10.715c0.148-4.141,0.367-8.332,1.922-12.254
		c0.406-1.047-0.648-1.488-0.25-2.441c0.883-2.133,3.172-2.93,5.406-1.469c3.125,2.039,5.422,4.895,6.68,8.379
		C108.973,84.376,109.074,89.232,107.848,94.064z"/>
	<g>
		<g>
			<path fill-rule="evenodd" clip-rule="evenodd" fill="#F8FCFF" d="M131.035,38.837v-0.004c0.023-0.016,0.039-0.027,0.07-0.043
				C131.074,38.806,131.059,38.821,131.035,38.837z"/>
			<path fill-rule="evenodd" clip-rule="evenodd" fill="#F8FCFF" d="M138.848,48.079c-1.477,2.293-3.523,3.664-5.469,3.664
				c-0.125,0-0.258-0.008-0.391-0.02c-1.688-0.152-3.07-0.883-3.898-2.063c-0.758-1.086-0.953-2.43-0.563-3.887
				c0.703-2.648,1.852-4.418,3.609-5.57c1.023-0.691,2.195-0.785,3.32-0.785c0.258,0,0.516,0.008,0.781,0.016l0.336,0.008
				l0.258-0.219c0.383-0.328,0.813-0.504,1.234-0.504c0.82,0,1.594,0.629,2.07,1.684C141.043,42.392,140.52,45.474,138.848,48.079z"
				/>
			<path fill="#F8FCFF" d="M131.035,38.833v0.004c0.023-0.016,0.039-0.031,0.07-0.047C131.074,38.806,131.059,38.817,131.035,38.833
				z"/>
		</g>
	</g>
	<path fill="#F8FCFF" d="M136.035,32.575c-1.281-6.262-4.773-11.074-9.836-14.786c-2.766-2.039-5.57-4.105-9.07-4.809
		c0.539,0.656,1.094,1.301,1.594,1.98c0.477,0.641,0.484,1.316-0.125,1.875c-0.672,0.613-1.25,0.289-1.797-0.266
		c-1.141-1.16-1.836-2.938-4.211-1.902c-0.773,0.332-1.391-1.102-0.523-1.992c0.227-0.234,0.445-0.434,0.57-0.656
		c-0.023-0.27-0.031-0.563-0.031-0.855c-3.672-1.473-7.539-2.273-11.422-2.563c-5.508-0.41-11.063-0.832-16.508,0.691
		c0.016,1.969,1.234,3.582,1.68,5.438c0.172,0.723,0.516,1.32-0.125,1.824c-0.531,0.426-1.305,0.34-1.68-0.203
		c-1.219-1.77-2.578-1.422-4.141-0.535c-0.828,0.469-2.016,1.121-2.594-0.176c-0.594-1.305,0.719-1.625,1.594-2.07
		c0.461-0.238,0.914-0.488,1.375-0.727c-0.359-1.02-1.656-1.094-1.805-2.148c-3.883,0.949-7.711,2.066-11.148,4.215
		c0.156,0.262,0.336,0.512,0.469,0.785c0.391,0.816,1.648,1.543,0.617,2.563c-0.859,0.848-1.648,0.289-2.273-0.547
		c-0.375-0.516-0.523-0.066-0.805,0.191c-1.648,1.504-2.352,0.73-2.57-1.117c-3.633,2.16-7.438,4.043-10.672,6.821
		c0.141,1.922,0.789,3.527,2.438,4.711c0.578,0.414,0.656,1.242-0.023,1.797c-0.563,0.457-1.141,0.297-1.656-0.168
		c-0.578-0.504-1.156-1.012-1.75-1.488c-0.828-0.664-1.594-0.953-2.148,0.34c-0.258,0.598-0.734,1.02-1.453,0.879
		c-1.016-0.191-1.023-0.984-0.992-1.785c-4.203,2.922-7.609,6.48-9.727,11.063c0.117,0.07,0.227,0.137,0.344,0.207l0.195,0.125
		l0.188,0.148c1.578,1.289,3.133,2.621,4.656,3.973c-0.172-0.145-0.305-0.344-0.406-0.613c-0.328-0.852,0.266-1.281,1-1.496
		c1.578-0.453,1.531-1.184,0.445-2.195c-0.516-0.488-0.547-1.094-0.063-1.652c0.406-0.461,0.945-0.66,1.445-0.293
		c0.93,0.676,1.5,0.449,1.945-0.539c0.234-0.52,0.648-0.863,1.281-0.777c0.516,0.066,1.109,0.547,0.945,0.82
		c-1.008,1.609,2.711,2.16,0.813,3.883c-0.469,0.426-1.305,0.625-0.867,1.609c0.305,0.691,0.18,1.391-0.578,1.777
		c-0.711,0.367-1.164-0.094-1.563-0.594c-0.258-0.309-0.508-0.582-1.078-0.512c-0.523,0.203-1.172,0.461-1.82,0.703
		c-0.586,0.219-1.125,0.199-1.5-0.121c3.164,2.809,6.211,5.699,9.195,8.531c0.266,0.254,0.532,0.508,0.797,0.758
		c0.281-0.242,0.727-0.402,1.43-0.434c0.305-0.012,0.547-1.633,0.836-2.5c0.234-0.723,0.648-1.27,1.508-1.07
		c0.906,0.211,0.977,0.941,0.813,1.656c-0.344,1.543-0.156,2.922,0.328,4.211c0.742,0.246,1.445,0.496,2.133,0.766
		c0.188,0.074,0.375,0.148,0.547,0.223c3.32,0.582,6.797,0.754,10.156,0.922c1.719,0.086,3.656,0.18,5.539,0.34
		c1.406,0.121,2.797,0.297,4.148,0.469l0.094,0.012c1.617,0.211,3.281,0.426,4.906,0.523l0.492,0.031l0.172,0.059
		c0.219-0.77,0.438-1.539,0.688-2.297c0.523-1.656,1.117-3.289,1.829-4.875c1.359-3.031,3.445-5.43,5.094-8.227
		c-0.266,0.008-0.516-0.258-0.781-0.516c-1.352-1.098-0.633-3.313-2.297-4.293c-0.227-0.137-0.016-0.723,0.289-1.016
		c0.523-0.496,1.133-0.559,1.664-0.109c1.18,1.004,1.672,0.316,2.125-0.742c0.367-0.859,0.82-1.836,2.008-1.254
		c1.203,0.586,0.617,1.496,0.211,2.348c-0.375,0.813-0.977,1.586-0.719,2.586c-0.281,0.367-0.57,0.73-0.859,1.098
		c0.078-0.078,0.156-0.16,0.227-0.246c2.086-2.523,4.555-4.719,7.227-6.613c1.336-0.953,2.734-1.832,4.172-2.633
		c0.586-0.328,1.094-0.664,1.602-0.961c-0.438-0.309-2.297-1.695-2.406-1.898c-0.75-1.379,0.555-1.063,1.406-1.074
		c1.414-0.008,0.016-1.199,0.984-1.734c1.008-0.555,1.273,1.063,1.867,1.316c0.695,0.297,1.844-1.105,2.195-0.164
		c0.266,0.695-1.031,1.703-1.406,2.176c-0.164,0.211-0.328,0.398-0.492,0.559c0.156-0.027,0.32-0.047,0.5-0.059
		c2-0.113,3.969-0.707,5.969-0.223c5.422,1.309,9.281,4.766,12.945,8.512c0.125-0.094,0.266-0.184,0.398-0.273
		c1.813-1.215,3.766-1.367,5.258-1.367h0.008c0.266-0.148,0.531-0.277,0.805-0.375C136.27,34.556,136.23,33.563,136.035,32.575z
		 M67.988,33.884c-0.82-0.242-1-0.934-0.938-1.656c0.133-1.336-0.164-2.219-1.742-2.281c-0.625-0.023-1.172-0.418-1.109-1.215
		c0.055-0.719,0.711-0.863,1.109-1.27c1.914-1.922,4.531,0.121,6.516-1.301c0.422-0.301,1.047,0.168,1.289,0.707
		c0.289,0.672,0.008,1.301-0.57,1.582c-1.617,0.797-1.313,1.691-0.375,2.828c0.539,0.664,1.461,1.48,0.43,2.371
		c-0.781,0.684-1.563,0.363-2.109-0.516c-0.109-0.172-0.336-0.277-0.539-0.438c-0.148,0.215-0.297,0.391-0.398,0.59
		C69.199,33.954,68.636,34.075,67.988,33.884z M77.074,50.521c-0.508-0.129-1.055-0.586-1.5-0.086
		c-0.531,0.59,0.063,1.141,0.273,1.691c0.141,0.355,0.336,0.707,0.398,1.074c0.109,0.723-0.281,1.184-0.938,1.414
		c-0.781,0.273-1.148-0.254-1.398-0.844c-0.484-1.145-1.055-1.902-2.398-0.992c-0.82,0.559-1.773,0.934-2.313-0.301
		c-0.484-1.082,0.422-1.48,1.188-1.883c0.336-0.172,0.656-0.383,1.133-0.668c-0.625-0.309-1.117-0.508-1.57-0.785
		c-0.516-0.309-0.727-0.809-0.555-1.395c0.18-0.586,0.68-0.992,1.242-0.781c1.578,0.598,2.008-0.387,2.445-1.555
		c0.25-0.652,0.844-0.914,1.523-0.68c0.586,0.199,0.922,0.719,0.734,1.281c-0.547,1.563,0.281,1.785,1.555,1.93
		c0.859,0.098,2.063,0.23,2.125,1.406C79.089,50.657,78.105,50.778,77.074,50.521z M88.16,29.001
		c-0.782,0.813-1.993,1.422-0.899,2.691c-0.117,0.617-0.328,1.043-0.805,1.203c-0.547,0.191-1.133,0.141-1.391-0.457
		c-0.5-1.133-1.273-1.004-2.281-0.785c-1.57,0.348-2.422-0.316-1.43-1.836c0.766-1.168-0.305-1.504-0.625-2.141
		c-0.367-0.719-0.844-1.352-0.094-2.063c0.664-0.645,1.266-0.34,1.797,0.223c0.93,0.996,1.508-0.59,2.445-0.316
		c0.5,0.152,0.359,0.938,0.766,1.184c0.938,0.57,1.5-1.324,2.524-0.121C88.559,27.06,88.613,28.528,88.16,29.001z M104.098,17.118
		c-0.141,1.336-1.297,1.004-2.195,1.027c-0.43,0.012-0.914-0.199-1.297,0.246c-0.109,0.781,0.578,1.195,0.883,1.789
		c0.383,0.754,0.664,1.481-0.25,1.989c-0.688,0.379-1.391,0.246-1.766-0.516c-0.781-1.586-1.758-1.958-3.164-0.68
		c-0.594,0.547-1.32,0.555-1.805-0.156c-0.836-1.235,0.367-1.743,1.023-2.481c-0.773-0.434-2-0.543-1.773-1.734
		c0.219-1.152,1.375-1.129,2.258-1.148c1.156-0.027,1.922-0.348,2.102-1.598c0.094-0.637,0.555-0.906,1.172-0.859
		c0.727,0.043,1.188,0.449,1.141,1.176c-0.078,1.293,0.68,1.535,1.727,1.605C103.043,15.836,104.238,15.727,104.098,17.118z
		 M130.809,28.896c0.555,0.742,1.961,1.648,0.734,2.727c-1.367,1.207-1.891-0.629-3.008-1.258c-0.188,0.82-0.281,1.695-1.359,1.594
		c-0.992-0.094-1.25-0.859-1.18-1.684c0.133-1.477,0-2.531-1.945-2.473c-0.969,0.027-1.234-0.828-0.805-1.695
		c0.336-0.688,4.047-1.766,4.75-1.332c0.68,0.422,1.148,0.156,1.68-0.195c0.773-0.516,1.617-0.789,2.219,0.152
		c0.547,0.863-0.063,1.52-0.773,1.879C129.809,27.271,130.066,27.892,130.809,28.896z"/>
</g>
</svg>
