<?xml version="1.0" encoding="utf-8"?>
<!-- Generator: Adobe Illustrator 16.0.0, SVG Export Plug-In . SVG Version: 6.00 Build 0)  -->
<!DOCTYPE svg PUBLIC "-//W3C//DTD SVG 1.1//EN" "http://www.w3.org/Graphics/SVG/1.1/DTD/svg11.dtd">
<svg version="1.1" id="Layer_1" xmlns="http://www.w3.org/2000/svg" xmlns:xlink="http://www.w3.org/1999/xlink" x="0px" y="0px"
	 width="256px" height="256px" viewBox="0 0 256 256" enable-background="new 0 0 256 256" xml:space="preserve">
<g>
	<path fill="#FFFFFF" d="M245.798,146.622c-8.828-11.648-21.023-17.484-34.242-16.492c-14.492,1.109-28.297,10.617-36.016,24.797
		c-1.602,2.961-3.07,6-4.461,8.961l-4.375-2.07c1.453-3.008,2.938-6.133,4.609-9.195c5.906-10.883,14.797-19.109,25.078-23.594
		c-1.117-14.727-14.617-24.125-27.023-28.047c-7.07-2.227-15.469-3.148-23.359-2.008c-8.094,1.164-15.595,4.5-20.532,10.813
		c-2.594,3.32-5.75,7.672-7.852,12.602c2.867,2.797,5.008,6.117,6.258,9.797l-4.57,1.555c-0.25-0.758-0.563-1.469-0.891-2.156
		c-0.148-0.305-0.289-0.594-0.453-0.891c-0.016-0.047-0.055-0.109-0.086-0.156c-0.148-0.273-0.297-0.531-0.453-0.781
		c-0.148-0.242-0.297-0.453-0.453-0.672c-0.133-0.218-0.273-0.422-0.422-0.617c-0.305-0.422-0.617-0.797-0.922-1.156
		c-0.242-0.297-0.492-0.57-0.766-0.836c-0.258-0.281-0.508-0.531-0.773-0.781c-0.477-0.453-0.969-0.875-1.477-1.273
		c-0.195-0.164-0.414-0.328-0.617-0.492c-0.305-0.211-0.633-0.43-0.938-0.648c-0.219-0.141-0.438-0.289-0.656-0.422
		c-0.25-0.156-0.492-0.305-0.742-0.453c-0.234-0.125-0.477-0.273-0.703-0.391h-0.023c-0.492-0.273-0.977-0.516-1.43-0.734
		c-1.016-0.469-2.055-0.883-3.125-1.227c-0.836-0.289-1.688-0.531-2.555-0.742c-0.367-0.094-0.703-0.164-1.07-0.242
		c-0.82-0.164-1.648-0.289-2.469-0.398c-0.414-0.055-0.828-0.109-1.25-0.125c-0.344-0.039-0.703-0.055-1.07-0.07
		c-3.789-0.164-7.539,0.359-10.859,1.633c-1.273,0.484-2.524,1.07-3.727,1.703c-0.359,0.203-0.703,0.383-1.07,0.594
		c-0.305,0.164-0.609,0.344-0.906,0.547c-0.305,0.188-0.594,0.383-0.883,0.586c-0.039,0.016-0.07,0.031-0.109,0.047
		c-0.094,0.07-0.164,0.133-0.258,0.188c-0.18,0.102-0.336,0.234-0.523,0.359c-0.289,0.203-0.578,0.414-0.867,0.633
		c-0.836,0.641-1.672,1.305-2.469,2.031c-0.414,0.383-0.836,0.781-1.25,1.18c-0.422,0.398-0.82,0.813-1.203,1.25
		c-0.398,0.422-0.773,0.859-1.141,1.289h-0.016c-0.219,0.273-0.453,0.563-0.688,0.852c-0.93,1.18-1.797,2.414-2.578,3.703
		c-0.234,0.398-0.469,0.797-0.711,1.195c-0.211,0.383-0.414,0.766-0.617,1.164c-0.789,1.539-1.461,3.148-2.008,4.789
		c-0.133,0.398-0.258,0.773-0.359,1.172c-0.094,0.297-0.188,0.586-0.242,0.875c-0.109,0.344-0.18,0.688-0.25,1.016
		c-0.094,0.328-0.148,0.633-0.203,0.945c-0.273,1.43-0.453,2.844-0.508,4.273c9.195-0.883,20.406-0.086,28.204,3.727
		c6.188,3.008,13.695,9.68,14.492,18.602l-4.828,0.438c-0.563-6.477-6.328-12.063-11.766-14.711
		c-8.219-4.008-21.329-4.188-30.055-2.664c-5.445,0.945-9.992,2.336-13.82,4.266c-4.047,2.023-7.25,4.656-9.758,7.961
		c-8.375,10.992-7.836,27.586,1.258,38.555c15.703,19.008,44.922,15.469,70.672,12.375c8.711-1.055,16.922-2.055,24.234-2.164
		c11.063-0.164,22.47,0.875,33.501,1.852c20.039,1.773,40.75,3.625,60.141-1.453c13.961-3.656,24.172-13,28.742-26.258
		C258.626,176.294,255.72,159.7,245.798,146.622z M188.212,166.661c4.469,0,6.172,0.766,8.836,4.047
		c4.844,6.023-1.383,16.469-10.719,13.039C176.985,180.317,180.704,167.606,188.212,166.661z M150.634,170.341
		c0.023-0.016,0.039-0.031,0.055-0.016l2.125-0.836l0.031-0.016c3.266-0.781,6.188,0.578,8.297,3.172
		c4.711,5.875-1.352,16.031-10.43,12.695C142.634,182.364,145.032,173.427,150.634,170.341z M223.384,195.716
		c-6.023,3.609-13.914,4.664-20.133,5.172c-6.406,0.539-12.844,0.758-19.188,0.758c-22.383,0-43.766-2.859-59.18-5.617
		c-1.313-0.234-2.18-1.492-1.945-2.797c0.242-1.328,1.492-2.195,2.797-1.961c19.5,3.5,48.711,7.164,77.118,4.813
		c5.695-0.477,12.875-1.406,18.047-4.5c1.141-0.695,2.625-0.313,3.297,0.828C224.892,193.56,224.524,195.044,223.384,195.716z"/>
	<path fill-rule="evenodd" clip-rule="evenodd" fill="#FFFFFF" d="M78.156,123.771c0.094-0.055,0.164-0.117,0.258-0.188
		c0.039-0.016,0.07-0.031,0.109-0.047C78.398,123.606,78.273,123.692,78.156,123.771z"/>
	<path fill="#FFFFFF" d="M135.813,45.544c-2.626-2.094-8.672-5.868-5.61-9.907c-8.75,0.016-8.289,6.07-8.101,13.118
		c0.242,9.567-3.276,18.161-12.219,20.776c-6.948-2.113-13.791-7.405-17.679-12.456c-4.781-6.234-0.109-9.148-1.914-15.852
		c-0.719-2.656-2.711-5.133-4.57-6.727c0.828,5.688-6.211,7.492-7.594,12.571c-0.891,3.273-0.82,5.938-2.195,9.109
		c-1.25,2.906-3.172,5.141-3.867,8.477c-0.35,1.682-0.417,3.446-0.353,5.214c-3.569,1.831-7.551,2.609-11.455,2.206
		c-1.229-0.345-2.411-0.772-3.435-1.467c-3.078-2.078-4.008-5.914-6.859-8.281c-6.977-5.797-15.563-6.477-24.133-5.945
		c-3.961,0.242-8.234,0.727-11.656,2.883c5.945,1.945,12.188,4.016,12.078,11.141c-0.109,7.359-2.141,11.727,4.68,17.172
		c1.57,1.255,4.015,2.855,6.323,4.482c-4.308-0.354-9.36,5.114-12.042,7.081c-5.914,4.344-11.57-3.094-18.305,0.617
		c-3.164,1.742-5.25,4.953-6.906,8.047c4.43,2.773,10.398,2.281,14.555,6.266c4.43,4.258,4.43,8.766,11.398,10.055
		c1.942,0.352,4.082,0.508,6.202,0.492c-0.131,11.725,3.678,22.235,9.782,31.547c0.547-0.289,1.094-0.563,1.633-0.82
		c0.633-0.305,1.273-0.578,1.891-0.828c0.539-0.219,1.07-0.438,1.609-0.641c2.328-0.852,4.594-1.484,6.711-1.961
		c0.273-0.047,0.547-0.125,0.82-0.18c1.07-0.234,2.102-0.43,3.078-0.594c0-0.477,0.023-0.945,0.055-1.414
		c0.023-0.477,0.055-0.945,0.109-1.414c0.039-0.367,0.078-0.75,0.133-1.109c0.031-0.273,0.07-0.539,0.102-0.813
		c0.078-0.453,0.148-0.914,0.258-1.367c0.039-0.289,0.109-0.594,0.18-0.898c0.094-0.453,0.219-0.914,0.328-1.367
		c0.125-0.469,0.25-0.922,0.398-1.375c0.133-0.453,0.273-0.906,0.438-1.344c0.828-2.43,1.938-4.789,3.242-7.039
		c0.273-0.438,0.547-0.867,0.82-1.305c0.328-0.523,0.672-1.031,1.031-1.539c0.273-0.383,0.547-0.742,0.82-1.109
		c0.32-0.438,0.648-0.852,0.992-1.266c-5.234-10.797-6.109-18.281-2.664-22.906c3.047-4.102,6.617-3.742,8.016-3.391
		c6.219,1.539,8.922,10.875,9.32,13.289c0.094,0.547,0.164,1.094,0.203,1.633c0.633-0.289,1.266-0.539,1.922-0.797
		c4.407-1.703,9.485-2.305,14.532-1.813c0.508,0.031,0.992,0.086,1.484,0.164c0.523,0.07,1.07,0.141,1.594,0.25
		c-3.719-7.273-4.391-12.805-2.07-16.828c2.563-4.43,6.148-4.484,7.586-4.297c6.344,0.797,10.117,9.758,10.789,12.109
		c0.586,2.07,0.852,4.156,0.961,6.266c1.164-1.711,2.328-3.25,3.414-4.648c0.398-0.523,0.828-1.031,1.266-1.508
		c0.109-0.141,0.258-0.289,0.383-0.43c0.344-0.383,0.688-0.734,1.055-1.07c1.016-1.016,2.102-1.945,3.227-2.773
		c0.195-0.164,0.414-0.313,0.633-0.461c0.469-0.344,0.96-0.656,1.453-0.977c0.797-0.492,1.609-0.945,2.43-1.383
		c0.359-0.195,0.742-0.375,1.125-0.563c0.18-0.07,0.344-0.156,0.523-0.227c0.359-0.18,0.743-0.344,1.126-0.492
		c0.414-0.188,0.836-0.352,1.25-0.492c0.422-0.18,0.852-0.328,1.289-0.469c0.164-0.055,0.328-0.109,0.484-0.164
		c0.438-0.148,0.875-0.273,1.328-0.398c0.508-0.148,1.039-0.273,1.547-0.398c0.758-0.203,1.523-0.367,2.281-0.508
		c0.07-0.023,0.125-0.023,0.203-0.039c-2.068-3.094-4.379-5.93-6.877-8.515c0.079-5.697,5.667-8.723,7.846-15.446
		C147.509,60.396,143.603,51.802,135.813,45.544z"/>
	<g>
		<path fill="#FFFFFF" d="M70.703,130.513c-0.234,0.289-0.469,0.563-0.703,0.852c0.234-0.289,0.469-0.578,0.688-0.852H70.703z"/>
	</g>
	<path fill-rule="evenodd" clip-rule="evenodd" fill="#FFFFFF" d="M152.813,169.489l-2.125,0.836c-0.016-0.016-0.031,0-0.055,0.016
		l-0.102,0.039c0.18-0.094,0.359-0.18,0.539-0.273c0.07-0.031,0.125-0.07,0.195-0.094c0.055-0.016,0.109-0.047,0.164-0.07
		C151.884,169.747,152.337,169.599,152.813,169.489z"/>
</g>
</svg>
