<?xml version="1.0" encoding="utf-8"?>
<!-- Generator: Adobe Illustrator 16.0.0, SVG Export Plug-In . SVG Version: 6.00 Build 0)  -->
<!DOCTYPE svg PUBLIC "-//W3C//DTD SVG 1.1//EN" "http://www.w3.org/Graphics/SVG/1.1/DTD/svg11.dtd">
<svg version="1.1" id="Layer_1" xmlns="http://www.w3.org/2000/svg" xmlns:xlink="http://www.w3.org/1999/xlink" x="0px" y="0px"
	 width="256px" height="256px" viewBox="0 0 256 256" enable-background="new 0 0 256 256" xml:space="preserve">
<g>
	<path fill-rule="evenodd" clip-rule="evenodd" fill="#F8FCFE" d="M69.506,175.68c-3.469,7.945-16.015,22.016-10.484,31.023
		c2.891,4.703,9.484,6,13.68,2.133c4.664-4.305,2.313-9.82,0.141-14.648c-2.516-5.578-5.336-10.438-3.336-16.641"/>
	<path fill-rule="evenodd" clip-rule="evenodd" fill="#F8FCFE" d="M204.977,173.203c1.516,9.047-10.93,18.008-6.578,25.711
		c2.195,3.898,9.984,5.563,13.483,2.477c4.438-3.914,0.344-7.836-1.913-11.719c-2.914-5.023-3.938-9.406-4.672-15.195"/>
	<path fill-rule="evenodd" clip-rule="evenodd" fill="#F8FCFE" d="M145.25,174.102c-4.734,6.477-16.439,7.406-12.133,18.156
		c3.539,8.852,19.336,7.75,15.586-2.906c-1.883-5.359-4.953-7.641-3.977-13.922"/>
	<path fill-rule="evenodd" clip-rule="evenodd" fill="#F8FCFE" d="M20.366,173.305c-5.914,3.344-18.93,9.242-17.008,17.75
		c0.969,4.273,7.648,9.313,12.023,6.766c4.43-2.578,2.055-9.555,2.797-13.633c0.977-5.422,4.516-8.289,8.969-11.156
		c-3.406-0.203-6.273,0.125-8.898,2.133"/>
	<path fill-rule="evenodd" clip-rule="evenodd" fill="#F8FCFE" d="M175.742,184.438c1.922,8.445,11.625,24.609,4.516,32.43
		c-3.719,4.086-10.445,4.133-13.844-0.453c-3.781-5.094-0.438-10.078,2.602-14.422c3.5-5.008,7.18-9.258,6.375-15.719"/>
	<path fill-rule="evenodd" clip-rule="evenodd" fill="#F8FCFE" d="M37.553,205.734c-3.328,7.297-14.602,10.578-8.211,20.234
		c5.258,7.945,20.5,3.672,14.68-6.008c-2.938-4.867-6.398-6.477-6.719-12.828"/>
	<path fill-rule="evenodd" clip-rule="evenodd" fill="#F8FCFE" d="M230.788,199.406c5.742,5.594,17.438,4.547,14.992,15.867
		c-2.008,9.32-17.766,10.875-15.852-0.258c0.961-5.609,3.602-8.367,1.594-14.398"/>
	<path fill-rule="evenodd" clip-rule="evenodd" fill="#F8FCFE" d="M240.202,165.328c6.063,2.641,17.523,7.602,15.578,16.219
		c-0.93,4.109-5.148,6.867-9.313,5.383c-4.922-1.758-4.141-5.906-4.508-10.086c-0.461-5.32-0.18-8.594-4.258-12.789
		c-0.18-0.047-0.18-0.039,0,0.016c2.805,1.18,5.047,2.711,7.516,4.32"/>
	<path fill-rule="evenodd" clip-rule="evenodd" fill="#F8FCFE" d="M104.498,191.484c-1.906,7.359-5.555,21.242,3.625,25.602
		c4.375,2.078,9.867,0.219,11.477-4.609c1.906-5.703-2.406-7.938-5.93-11.227c-4.484-4.203-7.641-6.266-8.555-12.93
		c0.086-0.203,0.094-0.203,0.016,0c-0.922,3.383-1.133,6.492-1.422,9.867"/>
	<path fill="#F8FCFE" d="M153.773,28.634c-15.695-4.953-37.447-4.047-48.111,9.633c-2.844,3.656-6.305,8.445-8.625,13.867
		c3.133,3.047,5.508,6.656,6.883,10.68c0.477,1.383-0.266,2.891-1.648,3.359s-2.883-0.266-3.359-1.648
		c-2.555-7.477-8.453-11.555-12.945-13.664c-7.742-3.625-17.148-4.109-24.539-1.273c-13.96,5.352-24.179,19.328-24.765,33.296
		c10.078-0.961,22.367-0.094,30.929,4.07c6.773,3.305,15,10.633,15.867,20.406c0.125,1.453-0.945,2.742-2.406,2.867
		c-1.469,0.156-2.734-0.945-2.867-2.398c-0.625-7.094-6.938-13.203-12.914-16.117c-9-4.383-23.375-4.594-32.929-2.93
		c-12.297,2.141-20.5,6.398-25.828,13.398c-9.18,12.063-8.594,30.234,1.359,42.265c17.227,20.828,49.234,16.961,77.468,13.539
		c9.531-1.148,18.531-2.234,26.547-2.344c12.125-0.18,24.619,0.945,36.697,2.023c21.961,1.953,44.664,3.977,65.921-1.602
		c15.289-4.016,26.477-14.234,31.5-28.781c5.57-16.133,2.391-34.313-8.5-48.648c-9.68-12.742-23.008-19.141-37.515-18.055
		c-15.891,1.203-31.008,11.609-39.461,27.156c-1.742,3.195-3.352,6.57-4.906,9.828c-0.625,1.32-2.203,1.875-3.523,1.25
		s-1.883-2.203-1.25-3.523c1.586-3.32,3.227-6.766,5.031-10.086c6.484-11.921,16.219-20.929,27.484-25.843
		C182.117,43.235,167.352,32.923,153.773,28.634z M200.164,119.391c0,4.633-3.773,8.383-8.406,8.383
		c-3.125,0-5.844-1.703-7.273-4.227c2.742-0.742,5.125-2.313,6.813-4.578c1.727-2.305,2.523-5.008,2.406-7.75
		C197.398,112.094,200.164,115.415,200.164,119.391z M168.523,107.844c0.492-2.43,2.008-4.969,4.789-6.406
		c0.336-0.477,0.813-0.867,1.43-1.047c1.672-0.5,3.297-0.742,4.852-0.742c3.695,0,6.914,1.438,9.141,4.195
		c1.813,2.227,2.805,4.695,2.984,7.141c0.156,2.398-0.5,4.789-2.008,6.797c-1.492,2.008-3.617,3.336-6.008,3.891
		c-0.891,0.242-1.805,0.336-2.758,0.336c-0.023,0-0.023,0-0.023,0c-1.688,0-3.438-0.352-5.164-1.07
		C170.547,118.797,167.445,113.149,168.523,107.844z M128.826,132.172c-5.445,0-9.836-4.398-9.836-9.843
		c0-3.617,1.969-6.797,4.891-8.484c1.172,3.898,4.094,7.289,8.07,8.945c1.947,0.797,3.939,1.211,5.924,1.211
		c0.219,0,0.414,0,0.641-0.023C137.758,128.625,133.695,132.172,128.826,132.172z M146.68,117.782
		c-1.906,2.563-4.828,4.016-8.031,4.188c-0.234,0.039-0.5,0.039-0.75,0.039h-0.023c-1.688,0-3.438-0.352-5.172-1.07
		c-3.494-1.43-6.057-4.469-6.994-7.93c-0.477-1.672-0.578-3.438-0.219-5.164c0.5-2.43,1.992-4.969,4.789-6.406
		c0.32-0.477,0.82-0.867,1.414-1.047c1.689-0.5,3.322-0.742,4.846-0.742c3.719,0,6.922,1.438,9.164,4.195
		C149.305,108.274,149.68,113.743,146.68,117.782z"/>
</g>
</svg>
