<?xml version="1.0" encoding="utf-8"?>
<!-- Generator: Adobe Illustrator 16.0.0, SVG Export Plug-In . SVG Version: 6.00 Build 0)  -->
<!DOCTYPE svg PUBLIC "-//W3C//DTD SVG 1.1//EN" "http://www.w3.org/Graphics/SVG/1.1/DTD/svg11.dtd">
<svg version="1.1" id="Layer_1" xmlns="http://www.w3.org/2000/svg" xmlns:xlink="http://www.w3.org/1999/xlink" x="0px" y="0px"
	 width="256px" height="256px" viewBox="0 0 256 256" enable-background="new 0 0 256 256" xml:space="preserve">
<path fill="#F8FCFF" d="M246.75,42.33c-3.393-4.501-11.695-13.133-5.038-18.444c-14.247-3.576-15.989,6.469-18.596,18.012
	c-3.551,15.678-12.828,28.232-28.483,28.787c-10.434-6.305-19.376-17.762-23.609-27.587c-5.22-12.109,3.588-14.924,3.411-26.582
	c-0.066-4.624-2.29-9.484-4.666-12.84c-0.992,9.6-13.199,9.636-17.536,17.329c-2.796,4.958-3.795,9.332-7.334,13.931
	c-3.235,4.209-7.285,7.054-9.795,12.195c-0.944,1.931-1.65,4.002-2.205,6.134c-9.106,2.376-18.779,0.834-26.43-4.538
	c-2.833-4.459-3.174-10.099-6.384-14.51c-8.96-12.31-22.66-16.958-36.834-19.632c-6.536-1.23-13.705-2.217-20.156-0.104
	c8.869,5.61,18.182,11.562,15.07,23.104c-3.222,11.945-8.327,18.207,0.529,29.89c2.041,2.686,5.354,6.299,8.437,9.898
	c-6.865-2.357-17.342,4.459-22.519,6.561c-11.416,4.623-17.562-9.813-30.055-6.554C8.68,78.914,3.977,83.275,0,87.624
	c6.067,6.359,15.984,8.01,21.106,16.221c5.458,8.753,3.594,16.093,14.412,21.052c3.04,1.395,6.499,2.546,9.996,3.399
	c-11.415,44.113,12.95,89.816,53.603,113.108c25.437,14.577,55.906,13.572,82.72,2.827c41.384-16.593,69.3-58.33,61.211-102.906
	c-2.192-12.09-6.372-23.134-12.012-32.99c2.479-9.24,12.827-11.865,19.145-21.91C259.676,71.33,256.855,55.718,246.75,42.33z
	 M133.94,144.285l-0.165-2.431c0.031,9.691,1.298,24.335-9.192,29.464c-22.617,11.055-19.011-35.865-15.605-47.213
	c2.759-9.186,10.598-18.213,19.638-10.264C135.64,120.011,134.11,136.007,133.94,144.285z M167.138,171.318
	c-10.483-5.129-9.223-19.772-9.186-29.464l-0.171,2.431c-0.164-8.278-1.693-24.274,5.329-30.444
	c9.04-7.949,16.88,1.079,19.633,10.264C186.154,135.453,189.76,182.373,167.138,171.318z"/>
</svg>
