<?xml version="1.0" encoding="utf-8"?>
<!-- Generator: Adobe Illustrator 16.0.0, SVG Export Plug-In . SVG Version: 6.00 Build 0)  -->
<!DOCTYPE svg PUBLIC "-//W3C//DTD SVG 1.1//EN" "http://www.w3.org/Graphics/SVG/1.1/DTD/svg11.dtd">
<svg version="1.1" id="Layer_1" xmlns="http://www.w3.org/2000/svg" xmlns:xlink="http://www.w3.org/1999/xlink" x="0px" y="0px"
	 width="256px" height="256px" viewBox="0 0 256 256" enable-background="new 0 0 256 256" xml:space="preserve">
<path fill="#F8FCFE" d="M95.6,117.01"/>
<g>
	<path fill="#F8FCFE" d="M197.81,116.57c-0.119,0-0.239,0.01-0.359,0.01l3.06,0.38C199.57,116.7,198.67,116.57,197.81,116.57z
		 M197.81,116.57c-0.119,0-0.239,0.01-0.359,0.01l3.06,0.38C199.57,116.7,198.67,116.57,197.81,116.57z M197.81,116.57
		c-0.119,0-0.239,0.01-0.359,0.01l3.06,0.38C199.57,116.7,198.67,116.57,197.81,116.57z M197.81,116.57
		c-0.119,0-0.239,0.01-0.359,0.01l3.06,0.38C199.57,116.7,198.67,116.57,197.81,116.57z M224.74,79.5
		c-8.3-10.92-19.5-16.82-31.78-16.82c-0.979,0-1.96,0.03-2.95,0.11c-14.7,1.12-28.7,10.75-36.52,25.13
		c-1.62,2.98-3.11,6.09-4.54,9.1c-0.42,0.88-1.3,1.4-2.21,1.4c-0.351,0-0.71-0.08-1.05-0.24c-1.23-0.58-1.74-2.04-1.16-3.26
		c1.46-3.07,2.97-6.24,4.66-9.34c6-11.04,15.02-19.37,25.449-23.92c-1.149-14.93-14.84-24.47-27.409-28.43
		c-5.091-1.61-10.87-2.55-16.65-2.55c-10.72,0-21.46,3.24-27.87,11.46c-2.63,3.38-5.83,7.8-7.98,12.8c2.91,2.82,5.09,6.19,6.36,9.92
		c0.44,1.28-0.24,2.67-1.52,3.11c-0.26,0.09-0.53,0.13-0.79,0.13c-1.02,0-1.98-0.64-2.32-1.66c-1.36-3.96-3.73-6.89-6.29-9.04
		c-0.01-0.01-0.03-0.03-0.05-0.04c-1.89-1.58-3.88-2.74-5.64-3.56c-4.08-1.91-8.65-2.88-13.09-2.88c-3.37,0-6.67,0.56-9.62,1.69
		C48.84,57.57,39.38,70.5,38.84,83.44c2.24-0.21,4.6-0.33,7-0.33c7.6,0,15.61,1.16,21.63,4.09c6.27,3.06,13.88,9.84,14.68,18.89
		c0.12,1.35-0.87,2.54-2.22,2.66c-0.07,0.01-0.15,0.01-0.22,0.01c-1.25,0-2.33-0.96-2.44-2.24c-0.58-6.56-6.42-12.22-11.94-14.91
		c-5.3-2.58-12.62-3.6-19.52-3.6c-3.95,0-7.75,0.33-10.96,0.89c-11.39,1.98-18.98,5.92-23.91,12.4c-8.5,11.16-7.96,27.98,1.25,39.12
		c8.26,9.98,20.19,13.83,33.4,14.78c4.47,0.33,9.09,0.319,13.76,0.1c8.18-0.37,16.53-1.38,24.55-2.35
		c5.06-0.61,9.96-1.21,14.62-1.61c3.46-0.32,6.79-0.52,9.95-0.56c2.08-0.03,4.17-0.021,6.26,0.029c9.22,0.2,18.59,1.03,27.71,1.841
		c10.43,0.93,21.05,1.869,31.569,1.869c6.811,0,13.57-0.39,20.23-1.439h0.01c3.09-0.48,6.16-1.11,9.2-1.91
		c3.38-0.89,6.55-2.11,9.47-3.63c9.311-4.84,16.15-12.771,19.68-23.01C237.75,109.6,234.81,92.77,224.74,79.5z M101.18,140.5
		c-1.61,0-3.34-0.29-5.13-0.91c-11.11-3.85-13.67-23.12-1.54-23.12c0.8,0,1.67,0.08,2.6,0.26l0,0l0,0c3.96,0,8.11,1.33,11.07,4.3
		C116.83,129.71,111.13,140.5,101.18,140.5z M140.66,115.73c-1.91,2.55-4.88,3.92-8.12,3.92c-1.57,0-3.2-0.32-4.8-0.99
		c-4.82-2-7.69-7.21-6.69-12.12c0.32-1.54,1.06-3.11,2.31-4.38l19.081,9.24C142.23,112.94,141.64,114.42,140.66,115.73z
		 M180.5,115.73c-1.91,2.55-4.88,3.92-8.12,3.92c-1.57,0-3.2-0.32-4.8-0.99c-3.43-1.42-5.88-4.48-6.64-7.91l17.96-8.69
		c0.239,0.24,0.479,0.5,0.699,0.78C182.93,106.94,183.28,112,180.5,115.73z M198.12,134.35c-1.76,0-3.47-0.399-4.92-1.279
		c-8.01-4.86-3.9-16.18,4.25-16.49l-0.86-0.11c3.91,0.13,10.49,0.89,12.54,4.86C212.74,128.3,205.01,134.35,198.12,134.35z
		 M197.81,116.57c-0.119,0-0.239,0.01-0.359,0.01l3.06,0.38C199.57,116.7,198.67,116.57,197.81,116.57z M197.81,116.57
		c-0.119,0-0.239,0.01-0.359,0.01l3.06,0.38C199.57,116.7,198.67,116.57,197.81,116.57z M197.81,116.57
		c-0.119,0-0.239,0.01-0.359,0.01l3.06,0.38C199.57,116.7,198.67,116.57,197.81,116.57z M197.81,116.57
		c-0.119,0-0.239,0.01-0.359,0.01l3.06,0.38C199.57,116.7,198.67,116.57,197.81,116.57z M197.81,116.57
		c-0.119,0-0.239,0.01-0.359,0.01l3.06,0.38C199.57,116.7,198.67,116.57,197.81,116.57z"/>
</g>
<path fill="#F8FCFE" d="M256.78,256h-22.2l-20.72-16.28l9.979-31.26L175.4,185.92l32.81-25.35l-2.979-1.601
	c0.09-0.02,0.17-0.04,0.26-0.06c3.92-1.04,7.66-2.47,11.12-4.271c1.58-0.819,3.1-1.72,4.55-2.68l12.18,6.53l-31.72,24.5l38.95,18.14
	l-10.75,33.69L256.78,256z"/>
<path fill="#F8FCFE" d="M165.82,202.41L157.57,256h-15.86l4.64-30.11l-38.57,13.58l18.3-50.01l-39.02,11.69l9.57-41.601
	c0.87-0.09,1.72-0.17,2.57-0.24h0.06c3.39-0.319,6.52-0.489,9.31-0.529c0.76-0.011,1.51-0.021,2.26-0.021
	c0.69,0,1.38,0.01,2.07,0.01l-4.52,19.631l43.17-12.931l-17.63,48.181L165.82,202.41z"/>
<path fill="#F8FCFE" d="M7.96,236l4.69,20H0v-31.44l34.13-15.72L4.5,193.25l39.89-23.37l0.55-6.71c0.03,0.01,0.05,0.01,0.08,0.01
	c2.49,0.181,5.17,0.28,7.94,0.28c1.82,0,3.75-0.04,5.73-0.13l-1.21,14.77L32.73,192.61l32.41,17.05L7.96,236z"/>
<g>
	<path fill-rule="evenodd" clip-rule="evenodd" fill="#F8FCFE" d="M81.368,163.018c-3.309,6.693-14.684,18.292-10.291,26.269
		c2.296,4.169,7.92,5.556,11.688,2.398c4.193-3.514,2.389-8.358,0.717-12.603c-1.933-4.904-4.161-9.203-2.19-14.457"/>
	<path fill-rule="evenodd" clip-rule="evenodd" fill="#F8FCFE" d="M184.867,161.481c3.796,6.937-3.8,17.751,1.924,22.791
		c2.891,2.544,9.697,1.696,11.673-1.804c2.505-4.441-1.936-6.476-4.872-8.998c-3.793-3.259-5.866-6.541-8.105-11.043"/>
	<path fill-rule="evenodd" clip-rule="evenodd" fill="#F8FCFE" d="M24.765,156.432c-6.386,0.166-18.266,8.031-16.607,15.36
		c0.833,3.685,6.589,8.024,10.358,5.832c3.813-2.22,1.771-8.236,2.408-11.751c0.846-4.67,3.89-7.144,7.731-9.608"/>
	<path fill-rule="evenodd" clip-rule="evenodd" fill="#F8FCFE" d="M163.949,175.148c-1.659,7.278-10.021,21.207-3.893,27.94
		c3.204,3.521,8.995,3.561,11.925-0.387c3.261-4.395,0.378-8.687-2.236-12.424c-3.022-4.319-6.188-7.981-5.496-13.55"/>
	<path fill-rule="evenodd" clip-rule="evenodd" fill="#F8FCFE" d="M47.948,221.005c-2.866,6.289-12.578,9.117-7.075,17.434
		c4.532,6.852,17.67,3.166,12.647-5.173c-2.526-4.194-5.511-5.583-5.788-11.052"/>
	<path fill-rule="evenodd" clip-rule="evenodd" fill="#F8FCFE" d="M234.392,147.304c5.223,2.274,15.095,6.546,13.42,13.974
		c-0.798,3.535-4.435,5.915-8.022,4.636c-4.242-1.515-3.565-5.087-3.881-8.688c-0.399-4.585-0.156-7.402-3.67-11.021
		c-0.154-0.042-0.155-0.038-0.004,0.011c2.421,1.017,4.354,2.336,6.476,3.724"/>
	<path fill-rule="evenodd" clip-rule="evenodd" fill="#F8FCFE" d="M89.48,208.874c3.795,6.935-3.8,17.751,1.923,22.79
		c2.89,2.544,9.697,1.696,11.672-1.803c2.506-4.441-1.936-6.477-4.872-9c-3.793-3.257-5.867-6.539-8.105-11.041"/>
	<path fill-rule="evenodd" clip-rule="evenodd" fill="#F8FCFE" d="M195.275,211.747c2.808,4.957,8.131,14.304,2.327,19.234
		c-2.761,2.345-7.098,2.063-9.197-1.115c-2.48-3.761,0.208-6.21,2.119-9.277c2.438-3.905,4.324-6.011,3.691-11.014
		c-0.099-0.127-0.102-0.124-0.011,0.005c1.324,2.269,2.076,4.483,2.938,6.869"/>
	<path fill-rule="evenodd" clip-rule="evenodd" fill="#F8FCFE" d="M137.473,161.481c-4.08,5.579-14.163,6.381-10.459,15.641
		c3.052,7.627,16.664,6.678,13.434-2.506c-1.625-4.618-4.267-6.583-3.431-11.994"/>
	<path fill-rule="evenodd" clip-rule="evenodd" fill="#F8FCFE" d="M221.48,175.657c4.956,4.819,15.029,3.924,12.927,13.673
		c-1.734,8.029-15.313,9.369-13.664-0.226c0.83-4.824,3.106-7.203,1.377-12.397"/>
	<path fill-rule="evenodd" clip-rule="evenodd" fill="#F8FCFE" d="M19.611,200.191c-3.842,4.206-11.114,12.13-6.557,18.23
		c2.168,2.902,6.46,3.594,9.214,0.963c3.257-3.112,1.182-6.1,0.001-9.516c-1.504-4.35-2.874-6.823-1.141-11.56
		c0.124-0.101,0.126-0.097,0.008,0.009c-1.796,1.915-3.022,3.907-4.396,6.04"/>
	<path fill-rule="evenodd" clip-rule="evenodd" fill="#F8FCFE" d="M137.927,227.042c-1.647,6.34-4.788,18.305,3.123,22.06
		c3.764,1.787,8.499,0.187,9.887-3.968c1.641-4.915-2.073-6.838-5.108-9.678c-3.865-3.617-6.587-5.396-7.367-11.142
		c0.07-0.171,0.075-0.169,0.012,0.002c-0.798,2.913-0.975,5.597-1.226,8.504"/>
</g>
</svg>
