<?xml version="1.0" encoding="utf-8"?>
<!-- Generator: Adobe Illustrator 16.0.0, SVG Export Plug-In . SVG Version: 6.00 Build 0)  -->
<!DOCTYPE svg PUBLIC "-//W3C//DTD SVG 1.1//EN" "http://www.w3.org/Graphics/SVG/1.1/DTD/svg11.dtd">
<svg version="1.1" id="Layer_1" xmlns="http://www.w3.org/2000/svg" xmlns:xlink="http://www.w3.org/1999/xlink" x="0px" y="0px"
	 width="256px" height="256px" viewBox="0 0 256 256" enable-background="new 0 0 256 256" xml:space="preserve">
<g>
	<path fill-rule="evenodd" clip-rule="evenodd" fill="#F8FCFF" d="M120.98,177.727c0.199-1,0.438-1.922,0.719-2.68
		c0.641-0.797,1.359-1.164,2.121-0.883L120.98,177.727z"/>
	<path fill="#F8FCFF" d="M88.68,140.57c-7.199,2.758-13.438,7.516-18.16,13.359c-1.641,0.156-3.359,0.398-5.117,0.594
		c-15.48,1.844-33.043,3.961-42.48-7.438c-5.48-6.602-5.801-16.602-0.762-23.199c1.52-1.961,3.441-3.563,5.879-4.762
		c2.281-1.16,5.043-2,8.281-2.559c5.281-0.922,13.16-0.844,18.082,1.559c3.277,1.598,6.758,4.957,7.078,8.879l2.922-0.281
		c-0.48-5.359-5-9.359-8.723-11.199c-4.68-2.277-11.438-2.762-16.961-2.238c0.043-0.844,0.121-1.68,0.281-2.563
		c0.039-0.156,0.082-0.359,0.16-0.559c0.039-0.199,0.082-0.402,0.121-0.598c0.039-0.203,0.121-0.359,0.16-0.523
		c0.078-0.238,0.16-0.477,0.199-0.719c0.359-1,0.762-1.961,1.238-2.883c0.121-0.234,0.242-0.477,0.363-0.719
		c0.117-0.238,0.277-0.438,0.398-0.719c0.48-0.758,1-1.48,1.559-2.199c0.16-0.16,0.281-0.363,0.441-0.52
		c0.199-0.242,0.441-0.523,0.68-0.762c0.238-0.277,0.48-0.52,0.719-0.762c0.242-0.238,0.52-0.477,0.762-0.719
		c0.48-0.438,0.961-0.836,1.48-1.199c0.16-0.16,0.359-0.277,0.52-0.402c0.121-0.078,0.199-0.156,0.32-0.195
		c0.039-0.039,0.078-0.082,0.16-0.121l0.039-0.043c0.199-0.117,0.359-0.238,0.559-0.359c0.16-0.117,0.363-0.199,0.523-0.32
		c0.238-0.117,0.438-0.238,0.637-0.359c0.723-0.359,1.48-0.719,2.242-1c2-0.758,4.277-1.078,6.559-1
		c0.199,0,0.441,0.039,0.641,0.039c0.238,0,0.48,0.043,0.719,0.082c0.52,0.082,1,0.16,1.52,0.238
		c0.203,0.039,0.402,0.082,0.641,0.164c0.52,0.117,1.043,0.238,1.52,0.438c0.641,0.203,1.281,0.438,1.883,0.719
		c0.277,0.164,0.559,0.281,0.879,0.441c0.121,0.082,0.281,0.16,0.398,0.238c0.16,0.082,0.32,0.203,0.48,0.281
		c0.121,0.078,0.242,0.16,0.359,0.242c0.203,0.156,0.402,0.281,0.602,0.398c0.121,0.117,0.238,0.199,0.359,0.281
		c0.32,0.238,0.602,0.52,0.879,0.797c0.16,0.121,0.32,0.281,0.48,0.441s0.281,0.32,0.441,0.52c0.199,0.203,0.359,0.441,0.559,0.68
		c0.082,0.121,0.16,0.242,0.242,0.359c0.117,0.164,0.199,0.281,0.277,0.441c0.121,0.121,0.203,0.281,0.281,0.441
		c0,0.039,0.039,0.078,0.039,0.117c0.121,0.164,0.203,0.359,0.281,0.523c0.199,0.398,0.398,0.836,0.52,1.32l2.762-0.961
		c-0.762-2.203-2.043-4.203-3.762-5.883c1.281-2.961,3.16-5.598,4.719-7.598c2.961-3.762,7.48-5.801,12.363-6.48
		c4.719-0.68,9.797-0.117,14.039,1.199c7.441,2.363,15.559,8,16.238,16.879c-6.199,2.68-11.52,7.641-15.078,14.164
		c-1,1.836-1.879,3.719-2.762,5.559l2.641,1.238c0.801-1.797,1.719-3.641,2.68-5.398c4.641-8.523,12.922-14.242,21.641-14.922
		c7.961-0.602,15.281,2.922,20.602,9.922c2.32,3.039,4,6.398,4.957,9.879c-0.52-0.039-1.078-0.039-1.598-0.039
		c-14.242,0-26.16,5.199-33.52,14.641c-1.203,1.523-2.52,3.281-3.84,5.242c-4.281-1.563-8.922-2.398-13.52-2.398
		C96.879,138.289,92.602,139.086,88.68,140.57z"/>
	<path fill="#F8FCFF" d="M155.039,128.887c0,2.957-0.48,5.918-1.48,8.762c-2.758,8-8.879,13.602-17.277,15.797
		c-11.641,3.039-24.121,1.961-36.16,0.883c-5.801-0.523-11.762-1.039-17.641-1.078c2.719-2.164,5.801-3.922,9.121-5.203
		c3-1.164,6.359-1.758,9.801-1.758c4.438,0,9,1,13.078,2.875c1.238,0.641,2.48,1.359,3.602,2.125c2-4.32,4.719-8.039,6.957-10.922
		c6.48-8.281,16.84-11.563,27.242-11.563C153.199,128.805,154.121,128.844,155.039,128.887z"/>
	<g>
		<path fill-rule="evenodd" clip-rule="evenodd" fill="#F8FCFF" d="M236.961,172.609c-7.961-10.523-18.762-16.164-30.68-16.164
			c-0.961,0-1.961,0.039-2.961,0.117c-3,0.242-6,0.805-8.84,1.727c-1.52-12.039-11.441-22.32-26.441-27.043
			c-4.039-1.281-8.48-2.121-13-2.359c-0.918-0.043-1.84-0.082-2.758-0.082c-10.402,0-20.762,3.281-27.242,11.563
			c-2.238,2.883-4.957,6.602-6.957,10.922c-1.121-0.766-2.363-1.484-3.602-2.125c-4.078-1.875-8.641-2.875-13.078-2.875
			c-3.441,0-6.801,0.594-9.801,1.758c-3.32,1.281-6.402,3.039-9.121,5.203c-8.078,6.359-13.238,16-13.398,25.875
			c-6.84,1.203-16.762,3.805-23.16,12.281c-8.563,11.156-8,27.922,1.117,39c9.52,11.438,23.441,14.523,38.281,14.523
			c9.039,0,18.398-1.164,27.32-2.242c7.52-0.883,14.602-1.758,20.801-1.844h1.758c8.883,0,18.121,0.805,27.082,1.641
			c9.078,0.805,18.32,1.602,27.52,1.602c8.918,0,17.84-0.758,26.52-3.039c13.441-3.523,23.68-12.883,28.039-25.641
			C249.32,201.164,246.48,185.164,236.961,172.609z M157.441,172.164c5.32,0,9.117,19.281,2.559,27.281
			c-1.918,2.32-3.52,3.32-4.84,3.32c-3.602,0-4.961-7.516-4.32-14.68c-0.16-2.719,0.281-5.797,1.32-8.961
			C153.879,174.164,155.762,172.164,157.441,172.164z M125.602,203.523c-0.723,0-1.441-0.273-2.121-0.875
			c-7-6.125-4.238-22.719,1.199-27.203c1.242-2.516,2.801-4.039,4.359-4.039c1.441,0,2.883,1.32,4,4.32
			C137.082,186.523,131.199,203.523,125.602,203.523z M213.602,208.766c-3.281,12-10.961,17.844-24.281,18.398
			c-5.48,0.242-10.961,0.32-16.398,0.32c-8.281,0-16.563-0.195-24.602-0.398c-5.719-0.117-11.398-0.281-17.16-0.359h-0.719
			c-1.199,0-2.84,0.039-4.723,0.117c-3.398,0.086-6.918,0.164-10.359,0.164c-15.758,0-30.719-1.445-36.039-8.805
			c-1.52-2.117-2.918-5.719-1.039-10.758c0.598-1.602,2.121-2.602,3.758-2.602c0.441,0,0.922,0.086,1.363,0.242
			c2.078,0.758,3.156,3.078,2.398,5.164c-0.84,2.078-0.199,2.914,0.078,3.273c3.32,4.68,18.363,5.484,29.801,5.484
			c3.922,0,7.402-0.078,9.879-0.164c2.402-0.078,4.402-0.078,5.723-0.117c5.719,0.078,11.48,0.242,17.199,0.359
			c7.922,0.203,15.961,0.398,24.039,0.398c5.48,0,11-0.078,16.441-0.32c9.84-0.398,14.559-3.914,16.879-12.477
			c0.52-1.758,2.121-2.961,3.879-2.961c0.363,0,0.723,0.039,1.082,0.156C212.922,204.445,214.16,206.648,213.602,208.766z"/>
	</g>
	<path fill-rule="evenodd" clip-rule="evenodd" fill="#F8FCFF" d="M232.168,76.379c-3.418-4.508-8.164-6.766-13.355-6.379
		c-1.195,0.09-2.375,0.324-3.516,0.688c-0.598-4.785-4.539-8.859-10.504-10.738c-5.691-1.801-13.184-1.375-17.07,3.625
		c-0.895,1.141-1.965,2.617-2.766,4.328c-0.449-0.301-0.934-0.59-1.449-0.828c-2.848-1.336-6.336-1.512-9.09-0.453
		c-5.203,1.996-8.852,7.102-8.926,12.344c-2.73,0.477-6.648,1.504-9.207,4.875c-3.379,4.43-3.176,11.086,0.469,15.484
		c3.762,4.547,9.293,5.766,15.195,5.766c3.59,0,7.309-0.445,10.848-0.875c2.977-0.359,5.789-0.699,8.242-0.734
		c3.754-0.055,7.676,0.297,11.457,0.641c7.105,0.629,14.453,1.285,21.48-0.563c5.32-1.398,9.383-5.117,11.137-10.195
		C237.063,87.723,235.961,81.367,232.168,76.379z"/>
	<path fill-rule="evenodd" clip-rule="evenodd" fill="#F8FCFF" d="M256,106.566v49.199c-3.238,0.359-6.559,0.641-9.758,0.641
		c-7.523,0-14.563-1.563-19.363-7.359c-4.637-5.602-4.918-14.078-0.598-19.723c3.238-4.32,8.238-5.602,11.719-6.242
		c0.121-6.68,4.762-13.156,11.402-15.719C251.402,106.605,253.719,106.324,256,106.566z"/>
	<path fill-rule="evenodd" clip-rule="evenodd" fill="#F8FCFF" d="M143.152,40.988c-2.242-2.957-5.352-4.438-8.758-4.184
		c-0.781,0.059-1.555,0.215-2.305,0.449c-0.391-3.137-2.977-5.805-6.887-7.039c-3.734-1.18-8.645-0.902-11.195,2.375
		c-0.586,0.75-1.289,1.719-1.813,2.84c-0.293-0.199-0.613-0.387-0.949-0.543c-1.867-0.875-4.156-0.992-5.961-0.297
		c-3.41,1.309-5.805,4.656-5.852,8.094c-1.793,0.313-4.359,0.984-6.039,3.195c-2.215,2.906-2.082,7.273,0.309,10.156
		c2.465,2.98,6.094,3.781,9.965,3.781c2.352,0,4.789-0.297,7.109-0.578c1.953-0.234,3.797-0.457,5.406-0.477
		c2.461-0.039,5.035,0.195,7.512,0.414c4.66,0.414,9.477,0.844,14.086-0.363c3.488-0.918,6.152-3.355,7.305-6.684
		C146.363,48.426,145.641,44.262,143.152,40.988z"/>
	<path fill-rule="evenodd" clip-rule="evenodd" fill="#F8FCFF" d="M247.602,22.484c-2.242-2.957-5.352-4.441-8.758-4.184
		c-0.781,0.059-1.555,0.211-2.305,0.449c-0.391-3.137-2.977-5.809-6.887-7.043c-3.734-1.18-8.645-0.898-11.195,2.379
		c-0.586,0.746-1.289,1.715-1.813,2.84c-0.293-0.199-0.613-0.391-0.949-0.547c-1.867-0.875-4.156-0.988-5.961-0.297
		c-3.41,1.313-5.805,4.656-5.852,8.094c-1.793,0.316-4.359,0.988-6.039,3.199c-2.215,2.902-2.082,7.27,0.309,10.152
		c2.465,2.984,6.094,3.781,9.965,3.781c2.352,0,4.789-0.293,7.109-0.574c1.953-0.234,3.797-0.457,5.406-0.48
		c2.461-0.039,5.035,0.195,7.512,0.418c4.66,0.414,9.477,0.844,14.086-0.363c3.488-0.922,6.152-3.359,7.305-6.688
		C250.813,29.918,250.09,25.754,247.602,22.484z"/>
	<path fill-rule="evenodd" clip-rule="evenodd" fill="#F8FCFF" d="M57.242,63.484c-1.723,4.957-5.684,8.598-10.883,9.957
		c-6.84,1.805-14,1.164-20.957,0.563c-3.684-0.359-7.523-0.68-11.16-0.641c-2.402,0.039-5.16,0.359-8.043,0.719
		C4.16,74.324,2.082,74.566,0,74.723V36.887c2.281-0.363,4.762-0.043,6.879,0.957c0.523,0.238,1,0.52,1.441,0.801
		c0.762-1.641,1.801-3.121,2.68-4.203c3.801-4.875,11.082-5.316,16.641-3.555c5.84,1.836,9.68,5.797,10.238,10.477
		c1.121-0.359,2.281-0.559,3.441-0.68c5.082-0.359,9.68,1.84,13.039,6.242C58.039,51.805,59.121,58.004,57.242,63.484z"/>
</g>
</svg>
